<?xml version="1.0" encoding="utf-8" ?>
<!DOCTYPE svg PUBLIC "-//W3C//DTD SVG 1.1//EN" "http://www.w3.org/Graphics/SVG/1.1/DTD/svg11.dtd">
<svg height="1063" version="1.1" width="2412" xmlns="http://www.w3.org/2000/svg">
<rect fill="#ffffff" height="177" stroke="#ffffff" stroke-width="1" width="174" x="470" y="14"/>
<rect fill="none" height="177" stroke="#000000" stroke-width="1" width="174" x="470" y="14"/>
<text font-family="Lucida Grande" font-size="13" x="530" y="28">
Message</text>
<rect fill="#000000" height="1" stroke="#000000" stroke-width="1" width="174" x="470" y="38"/>
<text font-family="Lucida Grande" font-size="13" x="474" y="53">
type : MessageType</text>
<text font-family="Lucida Grande" font-size="13" x="474" y="70">
requiresToken : bool</text>
<text font-family="Lucida Grande" font-size="13" x="474" y="87">
Arguments[*] : Arguments</text>
<rect fill="#000000" height="1" stroke="#000000" stroke-width="1" width="174" x="470" y="97"/>
<text font-family="Lucida Grande" font-size="13" x="474" y="112">
addInteger(I : Integer)</text>
<text font-family="Lucida Grande" font-size="13" x="474" y="129">
addReal(r : Real)</text>
<text font-family="Lucida Grande" font-size="13" x="474" y="146">
addString(s : String)</text>
<text font-family="Lucida Grande" font-size="13" x="474" y="163">
addIntegers(I[*] : Integer)</text>
<text font-family="Lucida Grande" font-size="13" x="474" y="180">
addReals(r[*] : Real)</text>
<polygon fill="#ffffff" points="670,46 953,46 963,56 963,115 670,115 670,46" stroke="#ffffff" stroke-width="1"/>
<polyline fill="none" points="670,46 953,46 963,56 963,115 670,115 670,46" stroke="#000000" stroke-width="1"/>
<polygon fill="#ffffff" points="953,46 963,56 953,56 953,46" stroke="#ffffff" stroke-width="1"/>
<polyline fill="none" points="953,46 963,56 953,56 953,46" stroke="#000000" stroke-width="1"/>
<text font-family="Lucida Grande" font-size="13" x="673" y="62">
Arguments is an abstract object,</text>
<text font-family="Lucida Grande" font-size="13" x="673" y="78">
which is implementation specific.</text>
<text font-family="Lucida Grande" font-size="13" x="673" y="94">
Can be implemented using String,</text>
<text font-family="Lucida Grande" font-size="13" x="673" y="110">
byte[*] or any other smart implementation.</text>
<line fill="#000000" stroke="#000000" stroke-width="1" x1="670" x2="665" y1="70" y2="70"/>
<line fill="#000000" stroke="#000000" stroke-width="1" x1="660" x2="655" y1="70" y2="70"/>
<line fill="#000000" stroke="#000000" stroke-width="1" x1="650" x2="645" y1="70" y2="70"/>
<polygon fill="#ffffff" points="14,14 340,14 340,38 389,38 389,245 14,245 14,14" stroke="#ffffff" stroke-width="1"/>
<rect fill="none" height="24" stroke="#000000" stroke-width="1" width="326" x="14" y="14"/>
<text font-family="Lucida Grande" font-size="13" x="19" y="28">
Global</text>
<rect fill="none" height="207" stroke="#000000" stroke-width="1" width="375" x="14" y="38"/>
<rect fill="#ffffff" height="160" stroke="#ffffff" stroke-width="1" width="360" x="22" y="46"/>
<rect fill="none" height="160" stroke="#000000" stroke-width="1" width="360" x="22" y="46"/>
<text font-family="Lucida Grande" font-size="13" x="155" y="60">
Communicator</text>
<rect fill="#000000" height="1" stroke="#000000" stroke-width="1" width="360" x="22" y="70"/>
<text font-family="Lucida Grande" font-size="13" x="26" y="85">
hasToken : bool</text>
<text font-family="Lucida Grande" font-size="13" x="26" y="102">
tokenReceived : Date</text>
<rect fill="#000000" height="1" stroke="#000000" stroke-width="1" width="360" x="22" y="112"/>
<text font-family="Lucida Grande" font-size="13" x="26" y="127">
broadcastMessage(m : Message) : bool</text>
<text font-family="Lucida Grande" font-size="13" x="26" y="144">
lockToken(BlockingWait : bool) : bool</text>
<text font-family="Lucida Grande" font-size="13" x="26" y="161">
unlockToken() : void</text>
<text font-family="Lucida Grande" font-size="13" x="26" y="178">
broadcastTeamMessage(t : Team,m : Message) : bool</text>
<text font-family="Lucida Grande" font-size="13" x="26" y="195">
&lt;&lt;create&gt;&gt; Communicator(connections[*] : TCPSocket)</text>
<line fill="#000000" stroke="#000000" stroke-width="1" x1="382" x2="387" y1="134" y2="134"/>
<line fill="#000000" stroke="#000000" stroke-width="1" x1="392" x2="397" y1="134" y2="134"/>
<line fill="#000000" stroke="#000000" stroke-width="1" x1="402" x2="407" y1="134" y2="134"/>
<line fill="#000000" stroke="#000000" stroke-width="1" x1="412" x2="417" y1="134" y2="134"/>
<line fill="#000000" stroke="#000000" stroke-width="1" x1="422" x2="427" y1="134" y2="134"/>
<line fill="#000000" stroke="#000000" stroke-width="1" x1="432" x2="437" y1="134" y2="134"/>
<line fill="#000000" stroke="#000000" stroke-width="1" x1="442" x2="447" y1="134" y2="134"/>
<line fill="#000000" stroke="#000000" stroke-width="1" x1="452" x2="457" y1="134" y2="134"/>
<line fill="#000000" stroke="#000000" stroke-width="1" x1="462" x2="467" y1="134" y2="134"/>
<line fill="#000000" stroke="#000000" stroke-width="1" x1="458" x2="470" y1="141" y2="134"/>
<line fill="#000000" stroke="#000000" stroke-width="1" x1="458" x2="470" y1="127" y2="134"/>
<text font-family="Lucida Grande" font-size="13" x="387" y="121">
&lt;&lt;uses&gt;&gt;</text>
<polygon fill="#ffffff" points="1614,54 2348,54 2348,78 2397,78 2397,309 1614,309 1614,54" stroke="#ffffff" stroke-width="1"/>
<rect fill="none" height="24" stroke="#000000" stroke-width="1" width="734" x="1614" y="54"/>
<text font-family="Lucida Grande" font-size="13" x="1619" y="68">
Interfacess</text>
<rect fill="none" height="231" stroke="#000000" stroke-width="1" width="783" x="1614" y="78"/>
<rect fill="#ffffff" height="211" stroke="#ffffff" stroke-width="1" width="455" x="1678" y="86"/>
<rect fill="none" height="211" stroke="#000000" stroke-width="1" width="455" x="1678" y="86"/>
<text font-family="Lucida Grande" font-size="13" x="1876" y="100">
Drawable</text>
<rect fill="#000000" height="1" stroke="#000000" stroke-width="1" width="455" x="1678" y="110"/>
<text font-family="Lucida Grande" font-size="13" x="1682" y="125">
origin : Point3d</text>
<text font-family="Lucida Grande" font-size="13" x="1682" y="142">
yaw : Angle</text>
<text font-family="Lucida Grande" font-size="13" x="1682" y="159">
pitch : Angle</text>
<text font-family="Lucida Grande" font-size="13" x="1682" y="176">
roll : Angle</text>
<text font-family="Lucida Grande" font-size="13" x="1682" y="193">
boundingCylinder : Cylinder</text>
<rect fill="#000000" height="1" stroke="#000000" stroke-width="1" width="455" x="1678" y="203"/>
<text font-family="Lucida Grande" font-size="13" font-style="italic" x="1682" y="218">
paint()</text>
<text font-family="Lucida Grande" font-size="13" x="1682" y="235">
draw()</text>
<text font-family="Lucida Grande" font-size="13" x="1682" y="252">
localtoGlobal(p : Point3d)</text>
<text font-family="Lucida Grande" font-size="13" x="1682" y="269">
globaltoLocal(p : Point3d)</text>
<text font-family="Lucida Grande" font-size="13" x="1682" y="286">
detectCollision(start : Point3d,direction : Vector3d) : Drawable/Point3d</text>
<polygon fill="#ffffff" points="2150,94 2274,94 2284,104 2284,152 2150,152 2150,94" stroke="#ffffff" stroke-width="1"/>
<polyline fill="none" points="2150,94 2274,94 2284,104 2284,152 2150,152 2150,94" stroke="#000000" stroke-width="1"/>
<polygon fill="#ffffff" points="2274,94 2284,104 2274,104 2274,94" stroke="#ffffff" stroke-width="1"/>
<polyline fill="none" points="2274,94 2284,104 2274,104 2274,94" stroke="#000000" stroke-width="1"/>
<text font-family="Lucida Grande" font-size="13" x="2153" y="110">
Angles are </text>
<text font-family="Lucida Grande" font-size="13" x="2153" y="126">
between 0 and 360</text>
<line fill="#000000" stroke="#000000" stroke-width="1" x1="2150" x2="2145" y1="142" y2="142"/>
<line fill="#000000" stroke="#000000" stroke-width="1" x1="2140" x2="2135" y1="142" y2="142"/>
<rect fill="#ffffff" height="163" stroke="#ffffff" stroke-width="1" width="162" x="646" y="686"/>
<rect fill="none" height="163" stroke="#000000" stroke-width="1" width="162" x="646" y="686"/>
<text font-family="Lucida Grande" font-size="13" font-style="italic" x="701" y="720">
Building</text>
<text font-family="Lucida Grande" font-size="13" x="678" y="701">
&lt;&lt;Drawable&gt;&gt;</text>
<rect fill="#000000" height="1" stroke="#000000" stroke-width="1" width="162" x="646" y="730"/>
<text font-family="Lucida Grande" font-size="13" x="650" y="745">
cost : Integer</text>
<text font-family="Lucida Grande" font-size="13" x="650" y="762">
income : Integer</text>
<text font-family="Lucida Grande" font-size="13" x="650" y="779">
buildTime : Time</text>
<text font-family="Lucida Grande" font-size="13" x="650" y="796">
buildDuration : Duration</text>
<text font-family="Lucida Grande" font-size="13" x="650" y="813">
attackPower : Power</text>
<rect fill="#000000" height="1" stroke="#000000" stroke-width="1" width="162" x="646" y="823"/>
<text font-family="Lucida Grande" font-size="13" font-style="italic" x="650" y="838">
paint()</text>
<polygon fill="#ffffff" points="1062,38 1364,38 1374,48 1374,115 1062,115 1062,38" stroke="#ffffff" stroke-width="1"/>
<polyline fill="none" points="1062,38 1364,38 1374,48 1374,115 1062,115 1062,38" stroke="#000000" stroke-width="1"/>
<polygon fill="#ffffff" points="1364,38 1374,48 1364,48 1364,38" stroke="#ffffff" stroke-width="1"/>
<polyline fill="none" points="1364,38 1374,48 1364,48 1364,38" stroke="#000000" stroke-width="1"/>
<text font-family="Lucida Grande" font-size="13" x="1065" y="54">
Percentage/Power/Time/Duration is an object, </text>
<text font-family="Lucida Grande" font-size="13" x="1065" y="70">
which is implementation specific,</text>
<text font-family="Lucida Grande" font-size="13" x="1065" y="86">
time could be implemented </text>
<text font-family="Lucida Grande" font-size="13" x="1065" y="102">
using reals or integers</text>
<rect fill="#ffffff" height="91" stroke="#ffffff" stroke-width="1" width="106" x="534" y="950"/>
<rect fill="none" height="91" stroke="#000000" stroke-width="1" width="106" x="534" y="950"/>
<text font-family="Lucida Grande" font-size="13" x="577" y="984">
HQ</text>
<text font-family="Lucida Grande" font-size="13" x="538" y="965">
&lt;&lt;Drawable&gt;&gt;</text>
<rect fill="#000000" height="1" stroke="#000000" stroke-width="1" width="106" x="534" y="994"/>
<rect fill="#000000" height="1" stroke="#000000" stroke-width="1" width="106" x="534" y="1015"/>
<text font-family="Lucida Grande" font-size="13" x="538" y="1030">
paint()</text>
<rect fill="#ffffff" height="91" stroke="#ffffff" stroke-width="1" width="108" x="814" y="950"/>
<rect fill="none" height="91" stroke="#000000" stroke-width="1" width="108" x="814" y="950"/>
<text font-family="Lucida Grande" font-size="13" x="824" y="984">
ResourceMine</text>
<text font-family="Lucida Grande" font-size="13" x="819" y="965">
&lt;&lt;Drawable&gt;&gt;</text>
<rect fill="#000000" height="1" stroke="#000000" stroke-width="1" width="108" x="814" y="994"/>
<rect fill="#000000" height="1" stroke="#000000" stroke-width="1" width="108" x="814" y="1015"/>
<text font-family="Lucida Grande" font-size="13" x="818" y="1030">
paint()</text>
<rect fill="#ffffff" height="91" stroke="#ffffff" stroke-width="1" width="108" x="662" y="958"/>
<rect fill="none" height="91" stroke="#000000" stroke-width="1" width="108" x="662" y="958"/>
<text font-family="Lucida Grande" font-size="13" x="671" y="992">
DefenseTower</text>
<text font-family="Lucida Grande" font-size="13" x="667" y="973">
&lt;&lt;Drawable&gt;&gt;</text>
<rect fill="#000000" height="1" stroke="#000000" stroke-width="1" width="108" x="662" y="1002"/>
<rect fill="#000000" height="1" stroke="#000000" stroke-width="1" width="108" x="662" y="1023"/>
<text font-family="Lucida Grande" font-size="13" x="666" y="1038">
paint()</text>
<polyline fill="none" points="590,950 590,926 710,902 710,849" stroke="#000000" stroke-width="1"/>
<polygon fill="#ffffff" points="710,849 717,861 703,861" stroke="#ffffff" stroke-width="1"/>
<polygon fill="none" points="710,849 717,861 703,861" stroke="#000000" stroke-width="1"/>
<polyline fill="none" points="710,958 710,849" stroke="#000000" stroke-width="1"/>
<polygon fill="#ffffff" points="710,849 717,861 703,861" stroke="#ffffff" stroke-width="1"/>
<polygon fill="none" points="710,849 717,861 703,861" stroke="#000000" stroke-width="1"/>
<polyline fill="none" points="870,950 870,926 710,902 710,849" stroke="#000000" stroke-width="1"/>
<polygon fill="#ffffff" points="710,849 717,861 703,861" stroke="#ffffff" stroke-width="1"/>
<polygon fill="none" points="710,849 717,861 703,861" stroke="#000000" stroke-width="1"/>
<rect fill="#ffffff" height="91" stroke="#ffffff" stroke-width="1" width="400" x="782" y="150"/>
<rect fill="none" height="91" stroke="#000000" stroke-width="1" width="400" x="782" y="150"/>
<text font-family="Lucida Grande" font-size="13" x="964" y="184">
Game</text>
<text font-family="Lucida Grande" font-size="13" x="933" y="165">
&lt;&lt;Drawable&gt;&gt;</text>
<rect fill="#000000" height="1" stroke="#000000" stroke-width="1" width="400" x="782" y="194"/>
<rect fill="#000000" height="1" stroke="#000000" stroke-width="1" width="400" x="782" y="215"/>
<text font-family="Lucida Grande" font-size="13" x="786" y="230">
detectCollision(start : Point3d,direction : Vector3d) : Drawable</text>
<rect fill="#ffffff" height="180" stroke="#ffffff" stroke-width="1" width="290" x="1214" y="454"/>
<rect fill="none" height="180" stroke="#000000" stroke-width="1" width="290" x="1214" y="454"/>
<text font-family="Lucida Grande" font-size="13" x="1340" y="488">
Player</text>
<text font-family="Lucida Grande" font-size="13" x="1310" y="469">
&lt;&lt;Drawable&gt;&gt;</text>
<rect fill="#000000" height="1" stroke="#000000" stroke-width="1" width="290" x="1214" y="498"/>
<text font-family="Lucida Grande" font-size="13" x="1218" y="513">
health : Percentage</text>
<text font-family="Lucida Grande" font-size="13" x="1218" y="530">
lastShoot : Time</text>
<text font-family="Lucida Grande" font-size="13" x="1218" y="547">
connection : TCPSocket</text>
<rect fill="#000000" height="1" stroke="#000000" stroke-width="1" width="290" x="1214" y="565"/>
<text font-family="Lucida Grande" font-size="13" x="1218" y="580">
fireLaser(start : Point3d,direction : Vector3d)</text>
<text font-family="Lucida Grande" font-size="13" x="1218" y="597">
paint()</text>
<text font-family="Lucida Grande" font-size="13" x="1218" y="614">
walk(yesno : Bool)</text>
<rect fill="#ffffff" height="112" stroke="#ffffff" stroke-width="1" width="151" x="1606" y="462"/>
<rect fill="none" height="112" stroke="#000000" stroke-width="1" width="151" x="1606" y="462"/>
<text font-family="Lucida Grande" font-size="13" x="1648" y="496">
Laserbeam</text>
<text font-family="Lucida Grande" font-size="13" x="1632" y="477">
&lt;&lt;Drawable&gt;&gt;</text>
<rect fill="#000000" height="1" stroke="#000000" stroke-width="1" width="151" x="1606" y="506"/>
<text font-family="Lucida Grande" font-size="13" x="1610" y="521">
fireTime : Time</text>
<text font-family="Lucida Grande" font-size="13" x="1610" y="538">
fireDuration : Duration</text>
<rect fill="#000000" height="1" stroke="#000000" stroke-width="1" width="151" x="1606" y="548"/>
<text font-family="Lucida Grande" font-size="13" x="1610" y="563">
paint()</text>
<polyline fill="none" points="1504,486 1606,486" stroke="#000000" stroke-width="1"/>
<polygon fill="#ffffff" points="1504,486 1514,481 1524,486 1514,491" stroke="#ffffff" stroke-width="1"/>
<polygon fill="none" points="1504,486 1514,481 1524,486 1514,491" stroke="#000000" stroke-width="1"/>
<rect fill="#ffffff" height="105" stroke="#ffffff" stroke-width="1" width="182" x="1310" y="142"/>
<rect fill="none" height="105" stroke="#000000" stroke-width="1" width="182" x="1310" y="142"/>
<text font-family="Lucida Grande" font-size="13" x="1377" y="156">
Camera</text>
<rect fill="#000000" height="1" stroke="#000000" stroke-width="1" width="182" x="1310" y="166"/>
<rect fill="#000000" height="1" stroke="#000000" stroke-width="1" width="182" x="1310" y="187"/>
<text font-family="Lucida Grande" font-size="13" x="1314" y="202">
look()</text>
<text font-family="Lucida Grande" font-size="13" font-style="italic" x="1314" y="219">
directionVector() : Vector3d</text>
<text font-family="Lucida Grande" font-size="13" font-style="italic" x="1314" y="236">
upVector() : Vector3d</text>
<rect fill="#ffffff" height="88" stroke="#ffffff" stroke-width="1" width="182" x="1374" y="302"/>
<rect fill="none" height="88" stroke="#000000" stroke-width="1" width="182" x="1374" y="302"/>
<text font-family="Lucida Grande" font-size="13" x="1423" y="316">
PlayerCamera</text>
<rect fill="#000000" height="1" stroke="#000000" stroke-width="1" width="182" x="1374" y="326"/>
<rect fill="#000000" height="1" stroke="#000000" stroke-width="1" width="182" x="1374" y="347"/>
<text font-family="Lucida Grande" font-size="13" x="1378" y="362">
directionVector() : Vector3d</text>
<text font-family="Lucida Grande" font-size="13" x="1378" y="379">
upVector() : Vector3d</text>
<polyline fill="none" points="1406,302 1406,247" stroke="#000000" stroke-width="1"/>
<polygon fill="#ffffff" points="1406,247 1413,259 1399,259" stroke="#ffffff" stroke-width="1"/>
<polygon fill="none" points="1406,247 1413,259 1399,259" stroke="#000000" stroke-width="1"/>
<polyline fill="none" points="1422,390 1422,454" stroke="#000000" stroke-width="1"/>
<line fill="#000000" stroke="#000000" stroke-width="1" x1="1415" x2="1422" y1="442" y2="454"/>
<line fill="#000000" stroke="#000000" stroke-width="1" x1="1429" x2="1422" y1="442" y2="454"/>
<polyline fill="none" points="1182,209 1310,209" stroke="#000000" stroke-width="1"/>
<line fill="#000000" stroke="#000000" stroke-width="1" x1="1298" x2="1310" y1="216" y2="209"/>
<line fill="#000000" stroke="#000000" stroke-width="1" x1="1298" x2="1310" y1="202" y2="209"/>
<rect fill="#ffffff" height="91" stroke="#ffffff" stroke-width="1" width="128" x="846" y="310"/>
<rect fill="none" height="91" stroke="#000000" stroke-width="1" width="128" x="846" y="310"/>
<text font-family="Lucida Grande" font-size="13" x="893" y="344">
Team</text>
<text font-family="Lucida Grande" font-size="13" x="861" y="325">
&lt;&lt;Drawable&gt;&gt;</text>
<rect fill="#000000" height="1" stroke="#000000" stroke-width="1" width="128" x="846" y="354"/>
<text font-family="Lucida Grande" font-size="13" x="850" y="369">
resources : Integer</text>
<rect fill="#000000" height="1" stroke="#000000" stroke-width="1" width="128" x="846" y="379"/>
<polyline fill="none" points="912,241 912,310" stroke="#000000" stroke-width="1"/>
<polygon fill="#000000" points="912,241 917,251 912,261 907,251" stroke="#000000" stroke-width="1"/>
<polygon fill="none" points="912,241 917,251 912,261 907,251" stroke="#000000" stroke-width="1"/>
<polyline fill="none" points="974,358 1030,358 1214,454" stroke="#000000" stroke-width="1"/>
<polygon fill="#000000" points="974,358 984,353 994,358 984,363" stroke="#000000" stroke-width="1"/>
<polygon fill="none" points="974,358 984,353 994,358 984,363" stroke="#000000" stroke-width="1"/>
<polygon fill="#ffffff" points="1055,454 1196,454 1206,464 1206,539 1055,539 1055,454" stroke="#ffffff" stroke-width="1"/>
<polyline fill="none" points="1055,454 1196,454 1206,464 1206,539 1055,539 1055,454" stroke="#000000" stroke-width="1"/>
<polygon fill="#ffffff" points="1196,454 1206,464 1196,464 1196,454" stroke="#ffffff" stroke-width="1"/>
<polyline fill="none" points="1196,454 1206,464 1196,464 1196,454" stroke="#000000" stroke-width="1"/>
<text font-family="Lucida Grande" font-size="13" x="1058" y="470">
Walk() is a method,</text>
<text font-family="Lucida Grande" font-size="13" x="1058" y="486">
which triggers the</text>
<text font-family="Lucida Grande" font-size="13" x="1058" y="502">
player to walk in the</text>
<text font-family="Lucida Grande" font-size="13" x="1058" y="518">
direction specified by</text>
<text font-family="Lucida Grande" font-size="13" x="1058" y="534">
 the angle.</text>
<line fill="#000000" stroke="#000000" stroke-width="1" x1="1207" x2="1212" y1="464" y2="464"/>
<polygon fill="#ffffff" points="2142,174 2322,174 2332,184 2332,232 2142,232 2142,174" stroke="#ffffff" stroke-width="1"/>
<polyline fill="none" points="2142,174 2322,174 2332,184 2332,232 2142,232 2142,174" stroke="#000000" stroke-width="1"/>
<polygon fill="#ffffff" points="2322,174 2332,184 2322,184 2322,174" stroke="#ffffff" stroke-width="1"/>
<polyline fill="none" points="2322,174 2332,184 2322,184 2322,174" stroke="#000000" stroke-width="1"/>
<text font-family="Lucida Grande" font-size="13" x="2145" y="190">
Implementing the interface</text>
<text font-family="Lucida Grande" font-size="13" x="2145" y="206">
Drawable is denoted by the </text>
<text font-family="Lucida Grande" font-size="13" x="2145" y="222">
stereotype &lt;&lt;Drawable&gt;&gt;</text>
<rect fill="#ffffff" height="91" stroke="#ffffff" stroke-width="1" width="395" x="398" y="278"/>
<rect fill="none" height="91" stroke="#000000" stroke-width="1" width="395" x="398" y="278"/>
<text font-family="Lucida Grande" font-size="13" x="573" y="312">
Terrain</text>
<text font-family="Lucida Grande" font-size="13" x="546" y="293">
&lt;&lt;Drawable&gt;&gt;</text>
<rect fill="#000000" height="1" stroke="#000000" stroke-width="1" width="395" x="398" y="322"/>
<rect fill="#000000" height="1" stroke="#000000" stroke-width="1" width="395" x="398" y="343"/>
<text font-family="Lucida Grande" font-size="13" x="402" y="358">
GroundCollision(start : Point3d,direction : Vector3d) : Point2d</text>
<polyline fill="none" points="782,241 782,278" stroke="#000000" stroke-width="1"/>
<polygon fill="#000000" points="782,241 787,251 782,261 777,251" stroke="#000000" stroke-width="1"/>
<polygon fill="none" points="782,241 787,251 782,261 777,251" stroke="#000000" stroke-width="1"/>
<rect fill="#ffffff" height="128" stroke="#ffffff" stroke-width="1" width="144" x="462" y="462"/>
<rect fill="none" height="128" stroke="#000000" stroke-width="1" width="144" x="462" y="462"/>
<text font-family="Lucida Grande" font-size="13" x="519" y="496">
Mine</text>
<text font-family="Lucida Grande" font-size="13" x="485" y="477">
&lt;&lt;Drawable&gt;&gt;</text>
<rect fill="#000000" height="1" stroke="#000000" stroke-width="1" width="144" x="462" y="506"/>
<text font-family="Lucida Grande" font-size="13" x="466" y="521">
maxIncome : Integer</text>
<rect fill="#000000" height="1" stroke="#000000" stroke-width="1" width="144" x="462" y="549"/>
<polyline fill="none" points="552,369 552,462" stroke="#000000" stroke-width="1"/>
<polygon fill="#ffffff" points="552,369 557,379 552,389 547,379" stroke="#ffffff" stroke-width="1"/>
<polygon fill="none" points="552,369 557,379 552,389 547,379" stroke="#000000" stroke-width="1"/>
<polyline fill="none" points="726,369 726,686" stroke="#000000" stroke-width="1"/>
<polygon fill="#ffffff" points="726,369 731,379 726,389 721,379" stroke="#ffffff" stroke-width="1"/>
<polygon fill="none" points="726,369 731,379 726,389 721,379" stroke="#000000" stroke-width="1"/>
<text font-family="Lucida Grande" font-size="13" x="728" y="492">
buildings</text>
<polyline fill="none" points="1214,634 808,686" stroke="#000000" stroke-width="1"/>
<line fill="#000000" stroke="#000000" stroke-width="1" x1="819" x2="808" y1="677" y2="686"/>
<line fill="#000000" stroke="#000000" stroke-width="1" x1="820" x2="808" y1="691" y2="686"/>
<text font-family="Lucida Grande" font-size="13" x="984" y="647">
OwnedBuildings</text>
</svg>
