<?xml version="1.0" encoding="utf-8" ?>
<!DOCTYPE svg PUBLIC "-//W3C//DTD SVG 1.1//EN" "http://www.w3.org/Graphics/SVG/1.1/DTD/svg11.dtd">
<svg height="1412" version="1.1" width="3204" xmlns="http://www.w3.org/2000/svg">
<rect fill="#ffffff" height="177" stroke="#ffffff" stroke-width="1" width="200" x="550" y="1190"/>
<rect fill="none" height="177" stroke="#000000" stroke-width="1" width="200" x="550" y="1190"/>
<text font-family="Lucida Grande" font-size="13" x="623" y="1204">
Message</text>
<rect fill="#000000" height="1" stroke="#000000" stroke-width="1" width="200" x="550" y="1214"/>
<text font-family="Lucida Grande" font-size="13" x="554" y="1229">
-type : MessageType</text>
<text font-family="Lucida Grande" font-size="13" x="554" y="1246">
-requiresToken : bool</text>
<text font-family="Lucida Grande" font-size="13" x="554" y="1263">
-Arguments[*] : Arguments</text>
<rect fill="#000000" height="1" stroke="#000000" stroke-width="1" width="200" x="550" y="1273"/>
<text font-family="Lucida Grande" font-size="13" x="554" y="1288">
+addInteger(I : Integer)</text>
<text font-family="Lucida Grande" font-size="13" x="554" y="1305">
+addReal(r : Real)</text>
<text font-family="Lucida Grande" font-size="13" x="554" y="1322">
+addString(s : String)</text>
<text font-family="Lucida Grande" font-size="13" x="554" y="1339">
+addIntegers(I[*] : Integer)</text>
<text font-family="Lucida Grande" font-size="13" x="554" y="1356">
+addReals(r[*] : Real)</text>
<polygon fill="#ffffff" points="798,1222 1081,1222 1091,1232 1091,1291 798,1291 798,1222" stroke="#ffffff" stroke-width="1"/>
<polyline fill="none" points="798,1222 1081,1222 1091,1232 1091,1291 798,1291 798,1222" stroke="#000000" stroke-width="1"/>
<polygon fill="#ffffff" points="1081,1222 1091,1232 1081,1232 1081,1222" stroke="#ffffff" stroke-width="1"/>
<polyline fill="none" points="1081,1222 1091,1232 1081,1232 1081,1222" stroke="#000000" stroke-width="1"/>
<text font-family="Lucida Grande" font-size="13" x="801" y="1238">
Arguments is an abstract object,</text>
<text font-family="Lucida Grande" font-size="13" x="801" y="1254">
which is implementation specific.</text>
<text font-family="Lucida Grande" font-size="13" x="801" y="1270">
Can be implemented using String,</text>
<text font-family="Lucida Grande" font-size="13" x="801" y="1286">
byte[*] or any other smart implementation.</text>
<line fill="#000000" stroke="#000000" stroke-width="1" x1="798" x2="793" y1="1252" y2="1252"/>
<line fill="#000000" stroke="#000000" stroke-width="1" x1="788" x2="783" y1="1252" y2="1252"/>
<line fill="#000000" stroke="#000000" stroke-width="1" x1="778" x2="773" y1="1252" y2="1252"/>
<line fill="#000000" stroke="#000000" stroke-width="1" x1="768" x2="763" y1="1252" y2="1252"/>
<line fill="#000000" stroke="#000000" stroke-width="1" x1="758" x2="753" y1="1252" y2="1252"/>
<rect fill="#ffffff" height="160" stroke="#ffffff" stroke-width="1" width="392" x="46" y="1238"/>
<rect fill="none" height="160" stroke="#000000" stroke-width="1" width="392" x="46" y="1238"/>
<text font-family="Lucida Grande" font-size="13" x="195" y="1252">
Communicator</text>
<rect fill="#000000" height="1" stroke="#000000" stroke-width="1" width="392" x="46" y="1262"/>
<text font-family="Lucida Grande" font-size="13" x="50" y="1277">
-hasToken : bool</text>
<text font-family="Lucida Grande" font-size="13" x="50" y="1294">
-tokenReceived : Date</text>
<rect fill="#000000" height="1" stroke="#000000" stroke-width="1" width="392" x="46" y="1304"/>
<text font-family="Lucida Grande" font-size="13" x="50" y="1319">
+broadcastMessage(m : Message) : bool</text>
<text font-family="Lucida Grande" font-size="13" x="50" y="1336">
+lockToken(BlockingWait : bool) : bool</text>
<text font-family="Lucida Grande" font-size="13" x="50" y="1353">
+unlockToken() : void</text>
<text font-family="Lucida Grande" font-size="13" x="50" y="1370">
+broadcastTeamMessage(t : Team,m : Message) : bool</text>
<text font-family="Lucida Grande" font-size="13" x="50" y="1387">
&lt;&lt;create&gt;&gt; Communicator(connections[*] : TCPSocket)</text>
<line fill="#000000" stroke="#000000" stroke-width="1" x1="438" x2="443" y1="1327" y2="1327"/>
<line fill="#000000" stroke="#000000" stroke-width="1" x1="448" x2="453" y1="1327" y2="1327"/>
<line fill="#000000" stroke="#000000" stroke-width="1" x1="458" x2="463" y1="1327" y2="1327"/>
<line fill="#000000" stroke="#000000" stroke-width="1" x1="468" x2="473" y1="1327" y2="1327"/>
<line fill="#000000" stroke="#000000" stroke-width="1" x1="478" x2="483" y1="1327" y2="1327"/>
<line fill="#000000" stroke="#000000" stroke-width="1" x1="488" x2="493" y1="1327" y2="1327"/>
<line fill="#000000" stroke="#000000" stroke-width="1" x1="498" x2="503" y1="1327" y2="1327"/>
<line fill="#000000" stroke="#000000" stroke-width="1" x1="508" x2="513" y1="1327" y2="1327"/>
<line fill="#000000" stroke="#000000" stroke-width="1" x1="518" x2="523" y1="1327" y2="1327"/>
<line fill="#000000" stroke="#000000" stroke-width="1" x1="528" x2="533" y1="1327" y2="1327"/>
<line fill="#000000" stroke="#000000" stroke-width="1" x1="538" x2="543" y1="1327" y2="1327"/>
<line fill="#000000" stroke="#000000" stroke-width="1" x1="548" x2="550" y1="1327" y2="1327"/>
<line fill="#000000" stroke="#000000" stroke-width="1" x1="538" x2="550" y1="1334" y2="1327"/>
<line fill="#000000" stroke="#000000" stroke-width="1" x1="538" x2="550" y1="1320" y2="1327"/>
<text font-family="Lucida Grande" font-size="13" x="455" y="1314">
&lt;&lt;uses&gt;&gt;</text>
<rect fill="#ffffff" height="228" stroke="#ffffff" stroke-width="1" width="488" x="2494" y="70"/>
<rect fill="none" height="228" stroke="#000000" stroke-width="1" width="488" x="2494" y="70"/>
<text font-family="Lucida Grande" font-size="13" x="2717" y="84">
Object</text>
<rect fill="#000000" height="1" stroke="#000000" stroke-width="1" width="488" x="2494" y="94"/>
<text font-family="Lucida Grande" font-size="13" x="2498" y="109">
-origin : Point3d</text>
<text font-family="Lucida Grande" font-size="13" x="2498" y="126">
-yaw : Angle</text>
<text font-family="Lucida Grande" font-size="13" x="2498" y="143">
-pitch : Angle</text>
<text font-family="Lucida Grande" font-size="13" x="2498" y="160">
-roll : Angle</text>
<text font-family="Lucida Grande" font-size="13" x="2498" y="177">
children : Object</text>
<rect fill="#000000" height="1" stroke="#000000" stroke-width="1" width="488" x="2494" y="204"/>
<text font-family="Lucida Grande" font-size="13" font-style="italic" x="2498" y="219">
draw()</text>
<text font-family="Lucida Grande" font-size="13" x="2498" y="236">
+render()</text>
<text font-family="Lucida Grande" font-size="13" x="2498" y="253">
+preRender()</text>
<text font-family="Lucida Grande" font-size="13" x="2498" y="270">
+postRender()</text>
<polygon fill="#ffffff" points="2998,78 3122,78 3132,88 3132,136 2998,136 2998,78" stroke="#ffffff" stroke-width="1"/>
<polyline fill="none" points="2998,78 3122,78 3132,88 3132,136 2998,136 2998,78" stroke="#000000" stroke-width="1"/>
<polygon fill="#ffffff" points="3122,78 3132,88 3122,88 3122,78" stroke="#ffffff" stroke-width="1"/>
<polyline fill="none" points="3122,78 3132,88 3122,88 3122,78" stroke="#000000" stroke-width="1"/>
<text font-family="Lucida Grande" font-size="13" x="3001" y="94">
Angles are </text>
<text font-family="Lucida Grande" font-size="13" x="3001" y="110">
between 0 and 360</text>
<line fill="#000000" stroke="#000000" stroke-width="1" x1="2998" x2="2993" y1="126" y2="126"/>
<line fill="#000000" stroke="#000000" stroke-width="1" x1="2988" x2="2983" y1="126" y2="126"/>
<rect fill="#ffffff" height="197" stroke="#ffffff" stroke-width="1" width="200" x="646" y="678"/>
<rect fill="none" height="197" stroke="#000000" stroke-width="1" width="200" x="646" y="678"/>
<text font-family="Lucida Grande" font-size="13" font-style="italic" x="720" y="712">
Building</text>
<text font-family="Lucida Grande" font-size="13" x="676" y="693">
&lt;&lt;BoundingObject&gt;&gt;</text>
<rect fill="#000000" height="1" stroke="#000000" stroke-width="1" width="200" x="646" y="722"/>
<text font-family="Lucida Grande" font-size="13" x="650" y="737">
-cost : Integer</text>
<text font-family="Lucida Grande" font-size="13" x="650" y="754">
-income : Integer</text>
<text font-family="Lucida Grande" font-size="13" x="650" y="771">
-buildTime : Time</text>
<text font-family="Lucida Grande" font-size="13" x="650" y="788">
-buildDuration : Duration</text>
<text font-family="Lucida Grande" font-size="13" x="650" y="805">
-attackPower : Power</text>
<text font-family="Lucida Grande" font-size="13" x="650" y="822">
-health : Integer</text>
<rect fill="#000000" height="1" stroke="#000000" stroke-width="1" width="200" x="646" y="840"/>
<text font-family="Lucida Grande" font-size="13" font-style="italic" x="650" y="855">
draw()</text>
<polygon fill="#ffffff" points="1310,22 1612,22 1622,32 1622,99 1310,99 1310,22" stroke="#ffffff" stroke-width="1"/>
<polyline fill="none" points="1310,22 1612,22 1622,32 1622,99 1310,99 1310,22" stroke="#000000" stroke-width="1"/>
<polygon fill="#ffffff" points="1612,22 1622,32 1612,32 1612,22" stroke="#ffffff" stroke-width="1"/>
<polyline fill="none" points="1612,22 1622,32 1612,32 1612,22" stroke="#000000" stroke-width="1"/>
<text font-family="Lucida Grande" font-size="13" x="1313" y="38">
Percentage/Power/Time/Duration is an object, </text>
<text font-family="Lucida Grande" font-size="13" x="1313" y="54">
which is implementation specific,</text>
<text font-family="Lucida Grande" font-size="13" x="1313" y="70">
time could be implemented </text>
<text font-family="Lucida Grande" font-size="13" x="1313" y="86">
using reals or integers</text>
<rect fill="#ffffff" height="91" stroke="#ffffff" stroke-width="1" width="150" x="822" y="942"/>
<rect fill="none" height="91" stroke="#000000" stroke-width="1" width="150" x="822" y="942"/>
<text font-family="Lucida Grande" font-size="13" x="887" y="976">
HQ</text>
<text font-family="Lucida Grande" font-size="13" x="827" y="957">
&lt;&lt;BoundingObject&gt;&gt;</text>
<rect fill="#000000" height="1" stroke="#000000" stroke-width="1" width="150" x="822" y="986"/>
<rect fill="#000000" height="1" stroke="#000000" stroke-width="1" width="150" x="822" y="1007"/>
<text font-family="Lucida Grande" font-size="13" x="826" y="1022">
draw()</text>
<rect fill="#ffffff" height="95" stroke="#ffffff" stroke-width="1" width="174" x="454" y="942"/>
<rect fill="none" height="95" stroke="#000000" stroke-width="1" width="174" x="454" y="942"/>
<text font-family="Lucida Grande" font-size="13" x="497" y="976">
ResourceMine</text>
<text font-family="Lucida Grande" font-size="13" x="471" y="957">
&lt;&lt;BoundingObject&gt;&gt;</text>
<rect fill="#000000" height="1" stroke="#000000" stroke-width="1" width="174" x="454" y="986"/>
<rect fill="#000000" height="1" stroke="#000000" stroke-width="1" width="174" x="454" y="1009"/>
<text font-family="Lucida Grande" font-size="13" x="458" y="1024">
draw()</text>
<rect fill="#ffffff" height="91" stroke="#ffffff" stroke-width="1" width="160" x="646" y="942"/>
<rect fill="none" height="91" stroke="#000000" stroke-width="1" width="160" x="646" y="942"/>
<text font-family="Lucida Grande" font-size="13" x="681" y="976">
DefenseTower</text>
<text font-family="Lucida Grande" font-size="13" x="656" y="957">
&lt;&lt;BoundingObject&gt;&gt;</text>
<rect fill="#000000" height="1" stroke="#000000" stroke-width="1" width="160" x="646" y="986"/>
<rect fill="#000000" height="1" stroke="#000000" stroke-width="1" width="160" x="646" y="1007"/>
<text font-family="Lucida Grande" font-size="13" x="650" y="1022">
draw()</text>
<polyline fill="none" points="862,942 862,902 846,875" stroke="#000000" stroke-width="1"/>
<polygon fill="#ffffff" points="846,875 858,881 846,888" stroke="#ffffff" stroke-width="1"/>
<polygon fill="none" points="846,875 858,881 846,888" stroke="#000000" stroke-width="1"/>
<polyline fill="none" points="718,942 718,875" stroke="#000000" stroke-width="1"/>
<polygon fill="#ffffff" points="718,875 725,887 711,887" stroke="#ffffff" stroke-width="1"/>
<polygon fill="none" points="718,875 725,887 711,887" stroke="#000000" stroke-width="1"/>
<polyline fill="none" points="590,942 590,902 646,875" stroke="#000000" stroke-width="1"/>
<polygon fill="#ffffff" points="646,875 638,886 632,873" stroke="#ffffff" stroke-width="1"/>
<polygon fill="none" points="646,875 638,886 632,873" stroke="#000000" stroke-width="1"/>
<rect fill="#ffffff" height="215" stroke="#ffffff" stroke-width="1" width="456" x="462" y="14"/>
<rect fill="none" height="215" stroke="#000000" stroke-width="1" width="456" x="462" y="14"/>
<text font-family="Lucida Grande" font-size="13" x="672" y="48">
World</text>
<text font-family="Lucida Grande" font-size="13" x="620" y="29">
&lt;&lt;BoundingObject&gt;&gt;</text>
<rect fill="#000000" height="1" stroke="#000000" stroke-width="1" width="456" x="462" y="58"/>
<text font-family="Lucida Grande" font-size="13" x="466" y="73">
-homePlayer : Player</text>
<rect fill="#000000" height="1" stroke="#000000" stroke-width="1" width="456" x="462" y="117"/>
<text font-family="Lucida Grande" font-size="13" x="466" y="132">
+walkHomePlayer(yesno : bool)</text>
<text font-family="Lucida Grande" font-size="13" x="466" y="149">
+shootHomePlayer()</text>
<text font-family="Lucida Grande" font-size="13" x="466" y="166">
+buildBuilding(p : Point2d,b : Building)</text>
<text font-family="Lucida Grande" font-size="13" x="466" y="183">
+pickup(p : Player,d : Droppable)</text>
<rect fill="#ffffff" height="181" stroke="#ffffff" stroke-width="1" width="328" x="1302" y="462"/>
<rect fill="none" height="181" stroke="#000000" stroke-width="1" width="328" x="1302" y="462"/>
<text font-family="Lucida Grande" font-size="13" x="1447" y="496">
Player</text>
<text font-family="Lucida Grande" font-size="13" x="1396" y="477">
&lt;&lt;BoundingObject&gt;&gt;</text>
<rect fill="#000000" height="1" stroke="#000000" stroke-width="1" width="328" x="1302" y="506"/>
<text font-family="Lucida Grande" font-size="13" x="1306" y="521">
-health : Percentage</text>
<text font-family="Lucida Grande" font-size="13" x="1306" y="538">
-lastShoot : Time</text>
<text font-family="Lucida Grande" font-size="13" x="1306" y="555">
-connection : TCPSocket</text>
<rect fill="#000000" height="1" stroke="#000000" stroke-width="1" width="328" x="1302" y="574"/>
<text font-family="Lucida Grande" font-size="13" x="1306" y="589">
+fireLaser(start : Point3d,direction : Vector3d)</text>
<text font-family="Lucida Grande" font-size="13" x="1306" y="606">
draw()</text>
<text font-family="Lucida Grande" font-size="13" x="1306" y="623">
+walk(yesno : Bool)</text>
<rect fill="#ffffff" height="130" stroke="#ffffff" stroke-width="1" width="184" x="1734" y="462"/>
<rect fill="none" height="130" stroke="#000000" stroke-width="1" width="184" x="1734" y="462"/>
<text font-family="Lucida Grande" font-size="13" x="1792" y="496">
Laserbeam</text>
<text font-family="Lucida Grande" font-size="13" x="1756" y="477">
&lt;&lt;BoundingObject&gt;&gt;</text>
<rect fill="#000000" height="1" stroke="#000000" stroke-width="1" width="184" x="1734" y="506"/>
<text font-family="Lucida Grande" font-size="13" x="1738" y="521">
-fireTime : Time</text>
<text font-family="Lucida Grande" font-size="13" x="1738" y="538">
-fireDuration : Duration</text>
<rect fill="#000000" height="1" stroke="#000000" stroke-width="1" width="184" x="1734" y="557"/>
<text font-family="Lucida Grande" font-size="13" x="1738" y="572">
draw()</text>
<polyline fill="none" points="1630,486 1734,486" stroke="#000000" stroke-width="1"/>
<polygon fill="#ffffff" points="1630,486 1640,481 1650,486 1640,491" stroke="#ffffff" stroke-width="1"/>
<polygon fill="none" points="1630,486 1640,481 1650,486 1640,491" stroke="#000000" stroke-width="1"/>
<text font-family="Lucida Grande" font-size="13" x="1649" y="481">
-lasers</text>
<text font-family="Lucida Grande" font-size="13" x="1708" y="481">
0..*</text>
<rect fill="#ffffff" height="105" stroke="#ffffff" stroke-width="1" width="216" x="1374" y="142"/>
<rect fill="none" height="105" stroke="#000000" stroke-width="1" width="216" x="1374" y="142"/>
<text font-family="Lucida Grande" font-size="13" x="1458" y="156">
Camera</text>
<rect fill="#000000" height="1" stroke="#000000" stroke-width="1" width="216" x="1374" y="166"/>
<rect fill="#000000" height="1" stroke="#000000" stroke-width="1" width="216" x="1374" y="187"/>
<text font-family="Lucida Grande" font-size="13" x="1378" y="202">
+look()</text>
<text font-family="Lucida Grande" font-size="13" font-style="italic" x="1378" y="219">
directionVector() : Vector3d</text>
<text font-family="Lucida Grande" font-size="13" font-style="italic" x="1378" y="236">
upVector() : Vector3d</text>
<rect fill="#ffffff" height="88" stroke="#ffffff" stroke-width="1" width="216" x="1358" y="302"/>
<rect fill="none" height="88" stroke="#000000" stroke-width="1" width="216" x="1358" y="302"/>
<text font-family="Lucida Grande" font-size="13" x="1424" y="316">
PlayerCamera</text>
<rect fill="#000000" height="1" stroke="#000000" stroke-width="1" width="216" x="1358" y="326"/>
<rect fill="#000000" height="1" stroke="#000000" stroke-width="1" width="216" x="1358" y="347"/>
<text font-family="Lucida Grande" font-size="13" x="1362" y="362">
+directionVector() : Vector3d</text>
<text font-family="Lucida Grande" font-size="13" x="1362" y="379">
+upVector() : Vector3d</text>
<polyline fill="none" points="1414,302 1414,247" stroke="#000000" stroke-width="1"/>
<polygon fill="#ffffff" points="1414,247 1421,259 1407,259" stroke="#ffffff" stroke-width="1"/>
<polygon fill="none" points="1414,247 1421,259 1407,259" stroke="#000000" stroke-width="1"/>
<polyline fill="none" points="1430,390 1430,462" stroke="#000000" stroke-width="1"/>
<line fill="#000000" stroke="#000000" stroke-width="1" x1="1423" x2="1430" y1="450" y2="462"/>
<line fill="#000000" stroke="#000000" stroke-width="1" x1="1437" x2="1430" y1="450" y2="462"/>
<text font-family="Lucida Grande" font-size="13" x="1433" y="431">
-player</text>
<text font-family="Lucida Grande" font-size="13" x="1448" y="451">
1</text>
<polyline fill="none" points="918,195 1374,195" stroke="#000000" stroke-width="1"/>
<line fill="#000000" stroke="#000000" stroke-width="1" x1="1362" x2="1374" y1="202" y2="195"/>
<line fill="#000000" stroke="#000000" stroke-width="1" x1="1362" x2="1374" y1="188" y2="195"/>
<text font-family="Lucida Grande" font-size="13" x="1031" y="189">
-camera</text>
<text font-family="Lucida Grande" font-size="13" x="1349" y="190">
1</text>
<rect fill="#ffffff" height="95" stroke="#ffffff" stroke-width="1" width="152" x="830" y="310"/>
<rect fill="none" height="95" stroke="#000000" stroke-width="1" width="152" x="830" y="310"/>
<text font-family="Lucida Grande" font-size="13" x="889" y="344">
Team</text>
<text font-family="Lucida Grande" font-size="13" x="836" y="325">
&lt;&lt;BoundingObject&gt;&gt;</text>
<rect fill="#000000" height="1" stroke="#000000" stroke-width="1" width="152" x="830" y="354"/>
<text font-family="Lucida Grande" font-size="13" x="834" y="369">
-resources : Integer</text>
<rect fill="#000000" height="1" stroke="#000000" stroke-width="1" width="152" x="830" y="379"/>
<text font-family="Lucida Grande" font-size="13" x="834" y="394">
draw()</text>
<polyline fill="none" points="894,229 894,310" stroke="#000000" stroke-width="1"/>
<polygon fill="#000000" points="894,229 899,239 894,249 889,239" stroke="#000000" stroke-width="1"/>
<polygon fill="none" points="894,229 899,239 894,249 889,239" stroke="#000000" stroke-width="1"/>
<text font-family="Lucida Grande" font-size="13" x="896" y="278">
-teams</text>
<text font-family="Lucida Grande" font-size="13" x="901" y="306">
2..*</text>
<polyline fill="none" points="982,358 1038,358 1302,462" stroke="#000000" stroke-width="1"/>
<polygon fill="#000000" points="982,358 992,353 1002,358 992,363" stroke="#000000" stroke-width="1"/>
<polygon fill="none" points="982,358 992,353 1002,358 992,363" stroke="#000000" stroke-width="1"/>
<text font-family="Lucida Grande" font-size="13" x="1026" y="353">
-players</text>
<text font-family="Lucida Grande" font-size="13" x="1278" y="446">
1..*</text>
<polygon fill="#ffffff" points="1366,726 1507,726 1517,736 1517,811 1366,811 1366,726" stroke="#ffffff" stroke-width="1"/>
<polyline fill="none" points="1366,726 1507,726 1517,736 1517,811 1366,811 1366,726" stroke="#000000" stroke-width="1"/>
<polygon fill="#ffffff" points="1507,726 1517,736 1507,736 1507,726" stroke="#ffffff" stroke-width="1"/>
<polyline fill="none" points="1507,726 1517,736 1507,736 1507,726" stroke="#000000" stroke-width="1"/>
<text font-family="Lucida Grande" font-size="13" x="1369" y="742">
Walk() is a method,</text>
<text font-family="Lucida Grande" font-size="13" x="1369" y="758">
which triggers the</text>
<text font-family="Lucida Grande" font-size="13" x="1369" y="774">
player to walk in the</text>
<text font-family="Lucida Grande" font-size="13" x="1369" y="790">
direction specified by</text>
<text font-family="Lucida Grande" font-size="13" x="1369" y="806">
 the angle.</text>
<line fill="#000000" stroke="#000000" stroke-width="1" x1="1430" x2="1430" y1="726" y2="721"/>
<line fill="#000000" stroke="#000000" stroke-width="1" x1="1430" x2="1430" y1="716" y2="711"/>
<line fill="#000000" stroke="#000000" stroke-width="1" x1="1430" x2="1430" y1="706" y2="701"/>
<line fill="#000000" stroke="#000000" stroke-width="1" x1="1430" x2="1430" y1="696" y2="691"/>
<line fill="#000000" stroke="#000000" stroke-width="1" x1="1430" x2="1430" y1="686" y2="681"/>
<line fill="#000000" stroke="#000000" stroke-width="1" x1="1430" x2="1430" y1="676" y2="671"/>
<line fill="#000000" stroke="#000000" stroke-width="1" x1="1430" x2="1430" y1="666" y2="661"/>
<line fill="#000000" stroke="#000000" stroke-width="1" x1="1430" x2="1430" y1="656" y2="651"/>
<line fill="#000000" stroke="#000000" stroke-width="1" x1="1430" x2="1430" y1="646" y2="643"/>
<polygon fill="#ffffff" points="2990,158 3179,158 3189,168 3189,229 2990,229 2990,158" stroke="#ffffff" stroke-width="1"/>
<polyline fill="none" points="2990,158 3179,158 3189,168 3189,229 2990,229 2990,158" stroke="#000000" stroke-width="1"/>
<polygon fill="#ffffff" points="3179,158 3189,168 3179,168 3179,158" stroke="#ffffff" stroke-width="1"/>
<polyline fill="none" points="3179,158 3189,168 3179,168 3179,158" stroke="#000000" stroke-width="1"/>
<text font-family="Lucida Grande" font-size="13" x="2993" y="174">
Implementing the interface</text>
<text font-family="Lucida Grande" font-size="13" x="2993" y="190">
Object or BoundingObject is</text>
<text font-family="Lucida Grande" font-size="13" x="2993" y="206">
denoted by  &lt;&lt;Object&gt;&gt; or</text>
<text font-family="Lucida Grande" font-size="13" x="2993" y="222">
&lt;&lt;BoundingObject&gt;&gt;</text>
<rect fill="#ffffff" height="126" stroke="#ffffff" stroke-width="1" width="440" x="334" y="302"/>
<rect fill="none" height="126" stroke="#000000" stroke-width="1" width="440" x="334" y="302"/>
<text font-family="Lucida Grande" font-size="13" x="532" y="336">
Terrain</text>
<text font-family="Lucida Grande" font-size="13" x="484" y="317">
&lt;&lt;BoundingObject&gt;&gt;</text>
<rect fill="#000000" height="1" stroke="#000000" stroke-width="1" width="440" x="334" y="346"/>
<rect fill="#000000" height="1" stroke="#000000" stroke-width="1" width="440" x="334" y="376"/>
<text font-family="Lucida Grande" font-size="13" x="338" y="391">
+groundCollision(start : Point3d,direction : Vector3d) : Point2d</text>
<text font-family="Lucida Grande" font-size="13" x="338" y="408">
+getHeight(x : Integer,y : Integer) : Real</text>
<polyline fill="none" points="710,229 710,302" stroke="#000000" stroke-width="1"/>
<polygon fill="#000000" points="710,229 715,239 710,249 705,239" stroke="#000000" stroke-width="1"/>
<polygon fill="none" points="710,229 715,239 710,249 705,239" stroke="#000000" stroke-width="1"/>
<text font-family="Lucida Grande" font-size="13" x="712" y="269">
-terrain</text>
<text font-family="Lucida Grande" font-size="13" x="723" y="294">
1</text>
<rect fill="#ffffff" height="129" stroke="#ffffff" stroke-width="1" width="176" x="246" y="486"/>
<rect fill="none" height="129" stroke="#000000" stroke-width="1" width="176" x="246" y="486"/>
<text font-family="Lucida Grande" font-size="13" font-style="italic" x="301" y="520">
Droppable</text>
<text font-family="Lucida Grande" font-size="13" x="264" y="501">
&lt;&lt;BoundingObject&gt;&gt;</text>
<rect fill="#000000" height="1" stroke="#000000" stroke-width="1" width="176" x="246" y="530"/>
<text font-family="Lucida Grande" font-size="13" x="250" y="545">
-worth : Integer</text>
<text font-family="Lucida Grande" font-size="13" x="250" y="562">
-dieTime : Time</text>
<rect fill="#000000" height="1" stroke="#000000" stroke-width="1" width="176" x="246" y="572"/>
<text font-family="Lucida Grande" font-size="13" font-style="italic" x="250" y="587">
+onPickup(w : World)</text>
<text font-family="Lucida Grande" font-size="13" font-style="italic" x="250" y="604">
draw()</text>
<rect fill="#ffffff" height="135" stroke="#ffffff" stroke-width="1" width="240" x="478" y="494"/>
<rect fill="none" height="135" stroke="#000000" stroke-width="1" width="240" x="478" y="494"/>
<text font-family="Lucida Grande" font-size="13" font-style="italic" x="569" y="528">
Structure</text>
<text font-family="Lucida Grande" font-size="13" x="528" y="509">
&lt;&lt;BoundingObject&gt;&gt;</text>
<rect fill="#000000" height="1" stroke="#000000" stroke-width="1" width="240" x="478" y="538"/>
<rect fill="#000000" height="1" stroke="#000000" stroke-width="1" width="240" x="478" y="581"/>
<text font-family="Lucida Grande" font-size="13" font-style="italic" x="482" y="596">
draw()</text>
<rect fill="#ffffff" height="152" stroke="#ffffff" stroke-width="1" width="248" x="206" y="686"/>
<rect fill="none" height="152" stroke="#000000" stroke-width="1" width="248" x="206" y="686"/>
<text font-family="Lucida Grande" font-size="13" x="315" y="720">
Mine</text>
<text font-family="Lucida Grande" font-size="13" x="260" y="701">
&lt;&lt;BoundingObject&gt;&gt;</text>
<rect fill="#000000" height="1" stroke="#000000" stroke-width="1" width="248" x="206" y="730"/>
<text font-family="Lucida Grande" font-size="13" x="210" y="745">
-income : Integer</text>
<rect fill="#000000" height="1" stroke="#000000" stroke-width="1" width="248" x="206" y="783"/>
<text font-family="Lucida Grande" font-size="13" x="210" y="798">
draw()</text>
<polyline fill="none" points="726,678 726,654 598,654 598,629" stroke="#000000" stroke-width="1"/>
<polygon fill="#ffffff" points="598,629 605,641 591,641" stroke="#ffffff" stroke-width="1"/>
<polygon fill="none" points="598,629 605,641 591,641" stroke="#000000" stroke-width="1"/>
<polyline fill="none" points="358,686 358,654 598,654 598,629" stroke="#000000" stroke-width="1"/>
<polygon fill="#ffffff" points="598,629 605,641 591,641" stroke="#ffffff" stroke-width="1"/>
<polygon fill="none" points="598,629 605,641 591,641" stroke="#000000" stroke-width="1"/>
<polyline fill="none" points="597,428 597,494" stroke="#000000" stroke-width="1"/>
<polygon fill="#000000" points="597,428 602,438 597,448 592,438" stroke="#000000" stroke-width="1"/>
<polygon fill="none" points="597,428 602,438 597,448 592,438" stroke="#000000" stroke-width="1"/>
<text font-family="Lucida Grande" font-size="13" x="599" y="471">
-grid[x][y]</text>
<text font-family="Lucida Grande" font-size="13" x="603" y="492">
0..*</text>
<polyline fill="none" points="766,678 766,478 870,478 870,405" stroke="#000000" stroke-width="1"/>
<line fill="#000000" stroke="#000000" stroke-width="1" x1="877" x2="870" y1="417" y2="405"/>
<line fill="#000000" stroke="#000000" stroke-width="1" x1="863" x2="870" y1="417" y2="405"/>
<text font-family="Lucida Grande" font-size="13" x="768" y="522">
-team</text>
<text font-family="Lucida Grande" font-size="13" x="884" y="425">
1</text>
<polyline fill="none" points="1302,462 1302,326 982,326" stroke="#000000" stroke-width="1"/>
<line fill="#000000" stroke="#000000" stroke-width="1" x1="994" x2="982" y1="319" y2="326"/>
<line fill="#000000" stroke="#000000" stroke-width="1" x1="994" x2="982" y1="333" y2="326"/>
<text font-family="Lucida Grande" font-size="13" x="1219" y="319">
-team</text>
<text font-family="Lucida Grande" font-size="13" x="1003" y="318">
1</text>
<rect fill="#ffffff" height="96" stroke="#ffffff" stroke-width="1" width="388" x="2614" y="366"/>
<rect fill="none" height="96" stroke="#000000" stroke-width="1" width="388" x="2614" y="366"/>
<text font-family="Lucida Grande" font-size="13" x="2758" y="380">
BoundingObject</text>
<rect fill="#000000" height="1" stroke="#000000" stroke-width="1" width="388" x="2614" y="390"/>
<text font-family="Lucida Grande" font-size="13" x="2618" y="405">
-bBox : BoundingBox</text>
<rect fill="#000000" height="1" stroke="#000000" stroke-width="1" width="388" x="2614" y="417"/>
<text font-family="Lucida Grande" font-size="13" x="2618" y="432">
checkCollision(origin : Point3d,direction : Vector3d) : Object</text>
<text font-family="Lucida Grande" font-size="13" font-style="italic" x="2618" y="449">
draw()</text>
<polyline fill="none" points="2647,366 2647,298" stroke="#000000" stroke-width="1"/>
<polygon fill="#ffffff" points="2647,298 2654,310 2640,310" stroke="#ffffff" stroke-width="1"/>
<polygon fill="none" points="2647,298 2654,310 2640,310" stroke="#000000" stroke-width="1"/>
<polyline fill="none" points="398,428 398,486" stroke="#000000" stroke-width="1"/>
<polygon fill="#000000" points="398,428 403,438 398,448 393,438" stroke="#000000" stroke-width="1"/>
<polygon fill="none" points="398,428 403,438 398,448 393,438" stroke="#000000" stroke-width="1"/>
<text font-family="Lucida Grande" font-size="13" x="401" y="462">
-droppables</text>
<text font-family="Lucida Grande" font-size="13" x="405" y="480">
0..*</text>
<polyline fill="none" points="1302,606 846,606 846,678" stroke="#000000" stroke-width="1"/>
<line fill="#000000" stroke="#000000" stroke-width="1" x1="839" x2="846" y1="666" y2="678"/>
<line fill="#000000" stroke="#000000" stroke-width="1" x1="853" x2="846" y1="666" y2="678"/>
<text font-family="Lucida Grande" font-size="13" x="1178" y="601">
-ownedBuildings</text>
<text font-family="Lucida Grande" font-size="13" x="859" y="664">
1</text>
<polygon fill="#ffffff" points="1614,718 1833,718 1843,728 1843,781 1614,781 1614,718" stroke="#ffffff" stroke-width="1"/>
<polyline fill="none" points="1614,718 1833,718 1843,728 1843,781 1614,781 1614,718" stroke="#000000" stroke-width="1"/>
<polygon fill="#ffffff" points="1833,718 1843,728 1833,728 1833,718" stroke="#ffffff" stroke-width="1"/>
<polyline fill="none" points="1833,718 1843,728 1833,728 1833,718" stroke="#000000" stroke-width="1"/>
<text font-family="Lucida Grande" font-size="13" x="1617" y="734">
The ownedBuildings relation from</text>
<text font-family="Lucida Grande" font-size="13" x="1617" y="750">
Player to Building is a one to one </text>
<text font-family="Lucida Grande" font-size="13" x="1617" y="766">
relation.</text>
<rect fill="#ffffff" height="108" stroke="#ffffff" stroke-width="1" width="150" x="14" y="662"/>
<rect fill="none" height="108" stroke="#000000" stroke-width="1" width="150" x="14" y="662"/>
<text font-family="Lucida Grande" font-size="13" x="74" y="696">
Coin</text>
<text font-family="Lucida Grande" font-size="13" x="19" y="677">
&lt;&lt;BoundingObject&gt;&gt;</text>
<rect fill="#000000" height="1" stroke="#000000" stroke-width="1" width="150" x="14" y="706"/>
<rect fill="#000000" height="1" stroke="#000000" stroke-width="1" width="150" x="14" y="727"/>
<text font-family="Lucida Grande" font-size="13" x="18" y="742">
+onPickup(w : World)</text>
<text font-family="Lucida Grande" font-size="13" x="18" y="759">
draw()</text>
<polyline fill="none" points="94,662 94,590 246,590" stroke="#000000" stroke-width="1"/>
<polygon fill="#ffffff" points="246,590 234,597 234,583" stroke="#ffffff" stroke-width="1"/>
<polygon fill="none" points="246,590 234,597 234,583" stroke="#000000" stroke-width="1"/>
</svg>
