<?xml version="1.0" encoding="utf-8" ?>
<!DOCTYPE svg PUBLIC "-//W3C//DTD SVG 1.1//EN" "http://www.w3.org/Graphics/SVG/1.1/DTD/svg11.dtd">
<svg height="1444" version="1.1" width="3236" xmlns="http://www.w3.org/2000/svg">
<polygon fill="#ffffff" points="14,1134 1068,1134 1068,1158 1117,1158 1117,1429 14,1429 14,1134" stroke="#ffffff" stroke-width="1"/>
<rect fill="none" height="24" stroke="#000000" stroke-width="1" width="1054" x="14" y="1134"/>
<text font-family="Lucida Grande" font-size="13" x="19" y="1148">
Global</text>
<rect fill="none" height="271" stroke="#000000" stroke-width="1" width="1103" x="14" y="1158"/>
<rect fill="#ffffff" height="177" stroke="#ffffff" stroke-width="1" width="200" x="526" y="1190"/>
<rect fill="none" height="177" stroke="#000000" stroke-width="1" width="200" x="526" y="1190"/>
<text font-family="Lucida Grande" font-size="13" x="599" y="1204">
Message</text>
<rect fill="#000000" height="1" stroke="#000000" stroke-width="1" width="200" x="526" y="1214"/>
<text font-family="Lucida Grande" font-size="13" x="530" y="1229">
-type : MessageType</text>
<text font-family="Lucida Grande" font-size="13" x="530" y="1246">
-requiresToken : bool</text>
<text font-family="Lucida Grande" font-size="13" x="530" y="1263">
-Arguments[*] : Arguments</text>
<rect fill="#000000" height="1" stroke="#000000" stroke-width="1" width="200" x="526" y="1273"/>
<text font-family="Lucida Grande" font-size="13" x="530" y="1288">
+addInteger(I : Integer)</text>
<text font-family="Lucida Grande" font-size="13" x="530" y="1305">
+addReal(r : Real)</text>
<text font-family="Lucida Grande" font-size="13" x="530" y="1322">
+addString(s : String)</text>
<text font-family="Lucida Grande" font-size="13" x="530" y="1339">
+addIntegers(I[*] : Integer)</text>
<text font-family="Lucida Grande" font-size="13" x="530" y="1356">
+addReals(r[*] : Real)</text>
<polygon fill="#ffffff" points="774,1222 1057,1222 1067,1232 1067,1291 774,1291 774,1222" stroke="#ffffff" stroke-width="1"/>
<polyline fill="none" points="774,1222 1057,1222 1067,1232 1067,1291 774,1291 774,1222" stroke="#000000" stroke-width="1"/>
<polygon fill="#ffffff" points="1057,1222 1067,1232 1057,1232 1057,1222" stroke="#ffffff" stroke-width="1"/>
<polyline fill="none" points="1057,1222 1067,1232 1057,1232 1057,1222" stroke="#000000" stroke-width="1"/>
<text font-family="Lucida Grande" font-size="13" x="777" y="1238">
Arguments is an abstract object,</text>
<text font-family="Lucida Grande" font-size="13" x="777" y="1254">
which is implementation specific.</text>
<text font-family="Lucida Grande" font-size="13" x="777" y="1270">
Can be implemented using String,</text>
<text font-family="Lucida Grande" font-size="13" x="777" y="1286">
byte[*] or any other smart implementation.</text>
<line fill="#000000" stroke="#000000" stroke-width="1" x1="774" x2="769" y1="1252" y2="1252"/>
<line fill="#000000" stroke="#000000" stroke-width="1" x1="764" x2="759" y1="1252" y2="1252"/>
<line fill="#000000" stroke="#000000" stroke-width="1" x1="754" x2="749" y1="1252" y2="1252"/>
<line fill="#000000" stroke="#000000" stroke-width="1" x1="744" x2="739" y1="1252" y2="1252"/>
<line fill="#000000" stroke="#000000" stroke-width="1" x1="734" x2="729" y1="1252" y2="1252"/>
<rect fill="#ffffff" height="160" stroke="#ffffff" stroke-width="1" width="392" x="22" y="1238"/>
<rect fill="none" height="160" stroke="#000000" stroke-width="1" width="392" x="22" y="1238"/>
<text font-family="Lucida Grande" font-size="13" x="171" y="1252">
Communicator</text>
<rect fill="#000000" height="1" stroke="#000000" stroke-width="1" width="392" x="22" y="1262"/>
<text font-family="Lucida Grande" font-size="13" x="26" y="1277">
-hasToken : bool</text>
<text font-family="Lucida Grande" font-size="13" x="26" y="1294">
-tokenReceived : Date</text>
<rect fill="#000000" height="1" stroke="#000000" stroke-width="1" width="392" x="22" y="1304"/>
<text font-family="Lucida Grande" font-size="13" x="26" y="1319">
+broadcastMessage(m : Message) : bool</text>
<text font-family="Lucida Grande" font-size="13" x="26" y="1336">
+lockToken(BlockingWait : bool) : bool</text>
<text font-family="Lucida Grande" font-size="13" x="26" y="1353">
+unlockToken() : void</text>
<text font-family="Lucida Grande" font-size="13" x="26" y="1370">
+broadcastTeamMessage(t : Team,m : Message) : bool</text>
<text font-family="Lucida Grande" font-size="13" x="26" y="1387">
&lt;&lt;create&gt;&gt; Communicator(connections[*] : TCPSocket)</text>
<line fill="#000000" stroke="#000000" stroke-width="1" x1="414" x2="419" y1="1327" y2="1327"/>
<line fill="#000000" stroke="#000000" stroke-width="1" x1="424" x2="429" y1="1327" y2="1327"/>
<line fill="#000000" stroke="#000000" stroke-width="1" x1="434" x2="439" y1="1327" y2="1327"/>
<line fill="#000000" stroke="#000000" stroke-width="1" x1="444" x2="449" y1="1327" y2="1327"/>
<line fill="#000000" stroke="#000000" stroke-width="1" x1="454" x2="459" y1="1327" y2="1327"/>
<line fill="#000000" stroke="#000000" stroke-width="1" x1="464" x2="469" y1="1327" y2="1327"/>
<line fill="#000000" stroke="#000000" stroke-width="1" x1="474" x2="479" y1="1327" y2="1327"/>
<line fill="#000000" stroke="#000000" stroke-width="1" x1="484" x2="489" y1="1327" y2="1327"/>
<line fill="#000000" stroke="#000000" stroke-width="1" x1="494" x2="499" y1="1327" y2="1327"/>
<line fill="#000000" stroke="#000000" stroke-width="1" x1="504" x2="509" y1="1327" y2="1327"/>
<line fill="#000000" stroke="#000000" stroke-width="1" x1="514" x2="519" y1="1327" y2="1327"/>
<line fill="#000000" stroke="#000000" stroke-width="1" x1="524" x2="526" y1="1327" y2="1327"/>
<line fill="#000000" stroke="#000000" stroke-width="1" x1="514" x2="526" y1="1334" y2="1327"/>
<line fill="#000000" stroke="#000000" stroke-width="1" x1="514" x2="526" y1="1320" y2="1327"/>
<text font-family="Lucida Grande" font-size="13" x="431" y="1314">
&lt;&lt;uses&gt;&gt;</text>
<polygon fill="#ffffff" points="2438,30 3172,30 3172,54 3221,54 3221,589 2438,589 2438,30" stroke="#ffffff" stroke-width="1"/>
<rect fill="none" height="24" stroke="#000000" stroke-width="1" width="734" x="2438" y="30"/>
<text font-family="Lucida Grande" font-size="13" x="2443" y="44">
Interfaces</text>
<rect fill="none" height="535" stroke="#000000" stroke-width="1" width="783" x="2438" y="54"/>
<rect fill="#ffffff" height="228" stroke="#ffffff" stroke-width="1" width="488" x="2462" y="62"/>
<rect fill="none" height="228" stroke="#000000" stroke-width="1" width="488" x="2462" y="62"/>
<text font-family="Lucida Grande" font-size="13" x="2685" y="76">
Object</text>
<rect fill="#000000" height="1" stroke="#000000" stroke-width="1" width="488" x="2462" y="86"/>
<text font-family="Lucida Grande" font-size="13" x="2466" y="101">
-origin : Point3d</text>
<text font-family="Lucida Grande" font-size="13" x="2466" y="118">
-yaw : Angle</text>
<text font-family="Lucida Grande" font-size="13" x="2466" y="135">
-pitch : Angle</text>
<text font-family="Lucida Grande" font-size="13" x="2466" y="152">
-roll : Angle</text>
<text font-family="Lucida Grande" font-size="13" x="2466" y="169">
-children : Object</text>
<rect fill="#000000" height="1" stroke="#000000" stroke-width="1" width="488" x="2462" y="196"/>
<text font-family="Lucida Grande" font-size="13" font-style="italic" x="2466" y="211">
draw()</text>
<text font-family="Lucida Grande" font-size="13" x="2466" y="228">
+render()</text>
<text font-family="Lucida Grande" font-size="13" x="2466" y="245">
+preRender()</text>
<text font-family="Lucida Grande" font-size="13" x="2466" y="262">
+postRender()</text>
<polygon fill="#ffffff" points="2974,70 3098,70 3108,80 3108,128 2974,128 2974,70" stroke="#ffffff" stroke-width="1"/>
<polyline fill="none" points="2974,70 3098,70 3108,80 3108,128 2974,128 2974,70" stroke="#000000" stroke-width="1"/>
<polygon fill="#ffffff" points="3098,70 3108,80 3098,80 3098,70" stroke="#ffffff" stroke-width="1"/>
<polyline fill="none" points="3098,70 3108,80 3098,80 3098,70" stroke="#000000" stroke-width="1"/>
<text font-family="Lucida Grande" font-size="13" x="2977" y="86">
Angles are </text>
<text font-family="Lucida Grande" font-size="13" x="2977" y="102">
between 0 and 360</text>
<line fill="#000000" stroke="#000000" stroke-width="1" x1="2974" x2="2969" y1="118" y2="118"/>
<line fill="#000000" stroke="#000000" stroke-width="1" x1="2964" x2="2959" y1="118" y2="118"/>
<line fill="#000000" stroke="#000000" stroke-width="1" x1="2954" x2="2950" y1="118" y2="118"/>
<rect fill="#ffffff" height="197" stroke="#ffffff" stroke-width="1" width="200" x="622" y="670"/>
<rect fill="none" height="197" stroke="#000000" stroke-width="1" width="200" x="622" y="670"/>
<text font-family="Lucida Grande" font-size="13" font-style="italic" x="696" y="704">
Building</text>
<text font-family="Lucida Grande" font-size="13" x="652" y="685">
&lt;&lt;BoundingObject&gt;&gt;</text>
<rect fill="#000000" height="1" stroke="#000000" stroke-width="1" width="200" x="622" y="714"/>
<text font-family="Lucida Grande" font-size="13" x="626" y="729">
-cost : Integer</text>
<text font-family="Lucida Grande" font-size="13" x="626" y="746">
-income : Integer</text>
<text font-family="Lucida Grande" font-size="13" x="626" y="763">
-buildTime : Time</text>
<text font-family="Lucida Grande" font-size="13" x="626" y="780">
-buildDuration : Duration</text>
<text font-family="Lucida Grande" font-size="13" x="626" y="797">
-attackPower : Power</text>
<text font-family="Lucida Grande" font-size="13" x="626" y="814">
-health : Integer</text>
<rect fill="#000000" height="1" stroke="#000000" stroke-width="1" width="200" x="622" y="832"/>
<text font-family="Lucida Grande" font-size="13" font-style="italic" x="626" y="847">
draw()</text>
<polygon fill="#ffffff" points="1198,14 1500,14 1510,24 1510,91 1198,91 1198,14" stroke="#ffffff" stroke-width="1"/>
<polyline fill="none" points="1198,14 1500,14 1510,24 1510,91 1198,91 1198,14" stroke="#000000" stroke-width="1"/>
<polygon fill="#ffffff" points="1500,14 1510,24 1500,24 1500,14" stroke="#ffffff" stroke-width="1"/>
<polyline fill="none" points="1500,14 1510,24 1500,24 1500,14" stroke="#000000" stroke-width="1"/>
<text font-family="Lucida Grande" font-size="13" x="1201" y="30">
Percentage/Power/Time/Duration is an object, </text>
<text font-family="Lucida Grande" font-size="13" x="1201" y="46">
which is implementation specific,</text>
<text font-family="Lucida Grande" font-size="13" x="1201" y="62">
time could be implemented </text>
<text font-family="Lucida Grande" font-size="13" x="1201" y="78">
using reals or integers</text>
<rect fill="#ffffff" height="91" stroke="#ffffff" stroke-width="1" width="150" x="798" y="934"/>
<rect fill="none" height="91" stroke="#000000" stroke-width="1" width="150" x="798" y="934"/>
<text font-family="Lucida Grande" font-size="13" x="863" y="968">
HQ</text>
<text font-family="Lucida Grande" font-size="13" x="803" y="949">
&lt;&lt;BoundingObject&gt;&gt;</text>
<rect fill="#000000" height="1" stroke="#000000" stroke-width="1" width="150" x="798" y="978"/>
<rect fill="#000000" height="1" stroke="#000000" stroke-width="1" width="150" x="798" y="999"/>
<text font-family="Lucida Grande" font-size="13" x="802" y="1014">
draw()</text>
<rect fill="#ffffff" height="95" stroke="#ffffff" stroke-width="1" width="174" x="430" y="934"/>
<rect fill="none" height="95" stroke="#000000" stroke-width="1" width="174" x="430" y="934"/>
<text font-family="Lucida Grande" font-size="13" x="473" y="968">
ResourceMine</text>
<text font-family="Lucida Grande" font-size="13" x="447" y="949">
&lt;&lt;BoundingObject&gt;&gt;</text>
<rect fill="#000000" height="1" stroke="#000000" stroke-width="1" width="174" x="430" y="978"/>
<rect fill="#000000" height="1" stroke="#000000" stroke-width="1" width="174" x="430" y="1001"/>
<text font-family="Lucida Grande" font-size="13" x="434" y="1016">
draw()</text>
<rect fill="#ffffff" height="91" stroke="#ffffff" stroke-width="1" width="160" x="622" y="934"/>
<rect fill="none" height="91" stroke="#000000" stroke-width="1" width="160" x="622" y="934"/>
<text font-family="Lucida Grande" font-size="13" x="657" y="968">
DefenseTower</text>
<text font-family="Lucida Grande" font-size="13" x="632" y="949">
&lt;&lt;BoundingObject&gt;&gt;</text>
<rect fill="#000000" height="1" stroke="#000000" stroke-width="1" width="160" x="622" y="978"/>
<rect fill="#000000" height="1" stroke="#000000" stroke-width="1" width="160" x="622" y="999"/>
<text font-family="Lucida Grande" font-size="13" x="626" y="1014">
draw()</text>
<polyline fill="none" points="838,934 838,894 822,867" stroke="#000000" stroke-width="1"/>
<polygon fill="#ffffff" points="822,867 834,873 822,880" stroke="#ffffff" stroke-width="1"/>
<polygon fill="none" points="822,867 834,873 822,880" stroke="#000000" stroke-width="1"/>
<polyline fill="none" points="694,934 694,867" stroke="#000000" stroke-width="1"/>
<polygon fill="#ffffff" points="694,867 701,879 687,879" stroke="#ffffff" stroke-width="1"/>
<polygon fill="none" points="694,867 701,879 687,879" stroke="#000000" stroke-width="1"/>
<polyline fill="none" points="566,934 566,894 622,867" stroke="#000000" stroke-width="1"/>
<polygon fill="#ffffff" points="622,867 614,878 608,865" stroke="#ffffff" stroke-width="1"/>
<polygon fill="none" points="622,867 614,878 608,865" stroke="#000000" stroke-width="1"/>
<rect fill="#ffffff" height="215" stroke="#ffffff" stroke-width="1" width="456" x="622" y="14"/>
<rect fill="none" height="215" stroke="#000000" stroke-width="1" width="456" x="622" y="14"/>
<text font-family="Lucida Grande" font-size="13" x="832" y="48">
World</text>
<text font-family="Lucida Grande" font-size="13" x="780" y="29">
&lt;&lt;BoundingObject&gt;&gt;</text>
<rect fill="#000000" height="1" stroke="#000000" stroke-width="1" width="456" x="622" y="58"/>
<text font-family="Lucida Grande" font-size="13" x="626" y="73">
-homePlayer : Player</text>
<rect fill="#000000" height="1" stroke="#000000" stroke-width="1" width="456" x="622" y="92"/>
<text font-family="Lucida Grande" font-size="13" x="626" y="107">
+detectCollision(start : Point3d,direction : Vector3d) : Object</text>
<text font-family="Lucida Grande" font-size="13" x="626" y="124">
+walkHomePlayer(yesno : bool)</text>
<text font-family="Lucida Grande" font-size="13" x="626" y="141">
+walkPlayer(p : Player,yesno : bool)</text>
<text font-family="Lucida Grande" font-size="13" x="626" y="158">
+shootHomePlayer()</text>
<text font-family="Lucida Grande" font-size="13" x="626" y="175">
+shootPlayer(p : Player)</text>
<text font-family="Lucida Grande" font-size="13" x="626" y="192">
+buildBuilding(p : Point2d,b : Building)</text>
<text font-family="Lucida Grande" font-size="13" x="626" y="209">
+pickup(p : Player,d : Droppable)</text>
<rect fill="#ffffff" height="181" stroke="#ffffff" stroke-width="1" width="328" x="1198" y="454"/>
<rect fill="none" height="181" stroke="#000000" stroke-width="1" width="328" x="1198" y="454"/>
<text font-family="Lucida Grande" font-size="13" x="1343" y="488">
Player</text>
<text font-family="Lucida Grande" font-size="13" x="1292" y="469">
&lt;&lt;BoundingObject&gt;&gt;</text>
<rect fill="#000000" height="1" stroke="#000000" stroke-width="1" width="328" x="1198" y="498"/>
<text font-family="Lucida Grande" font-size="13" x="1202" y="513">
-health : Percentage</text>
<text font-family="Lucida Grande" font-size="13" x="1202" y="530">
-lastShoot : Time</text>
<text font-family="Lucida Grande" font-size="13" x="1202" y="547">
-connection : TCPSocket</text>
<rect fill="#000000" height="1" stroke="#000000" stroke-width="1" width="328" x="1198" y="566"/>
<text font-family="Lucida Grande" font-size="13" x="1202" y="581">
+fireLaser(start : Point3d,direction : Vector3d)</text>
<text font-family="Lucida Grande" font-size="13" x="1202" y="598">
draw()</text>
<text font-family="Lucida Grande" font-size="13" x="1202" y="615">
+walk(yesno : Bool)</text>
<rect fill="#ffffff" height="130" stroke="#ffffff" stroke-width="1" width="184" x="1590" y="454"/>
<rect fill="none" height="130" stroke="#000000" stroke-width="1" width="184" x="1590" y="454"/>
<text font-family="Lucida Grande" font-size="13" x="1648" y="488">
Laserbeam</text>
<text font-family="Lucida Grande" font-size="13" x="1612" y="469">
&lt;&lt;BoundingObject&gt;&gt;</text>
<rect fill="#000000" height="1" stroke="#000000" stroke-width="1" width="184" x="1590" y="498"/>
<text font-family="Lucida Grande" font-size="13" x="1594" y="513">
-fireTime : Time</text>
<text font-family="Lucida Grande" font-size="13" x="1594" y="530">
-fireDuration : Duration</text>
<rect fill="#000000" height="1" stroke="#000000" stroke-width="1" width="184" x="1590" y="549"/>
<text font-family="Lucida Grande" font-size="13" x="1594" y="564">
draw()</text>
<polyline fill="none" points="1526,478 1590,478" stroke="#000000" stroke-width="1"/>
<polygon fill="#ffffff" points="1526,478 1536,473 1546,478 1536,483" stroke="#ffffff" stroke-width="1"/>
<polygon fill="none" points="1526,478 1536,473 1546,478 1536,483" stroke="#000000" stroke-width="1"/>
<rect fill="#ffffff" height="105" stroke="#ffffff" stroke-width="1" width="216" x="1294" y="134"/>
<rect fill="none" height="105" stroke="#000000" stroke-width="1" width="216" x="1294" y="134"/>
<text font-family="Lucida Grande" font-size="13" x="1378" y="148">
Camera</text>
<rect fill="#000000" height="1" stroke="#000000" stroke-width="1" width="216" x="1294" y="158"/>
<rect fill="#000000" height="1" stroke="#000000" stroke-width="1" width="216" x="1294" y="179"/>
<text font-family="Lucida Grande" font-size="13" x="1298" y="194">
+look()</text>
<text font-family="Lucida Grande" font-size="13" font-style="italic" x="1298" y="211">
directionVector() : Vector3d</text>
<text font-family="Lucida Grande" font-size="13" font-style="italic" x="1298" y="228">
upVector() : Vector3d</text>
<rect fill="#ffffff" height="88" stroke="#ffffff" stroke-width="1" width="216" x="1334" y="294"/>
<rect fill="none" height="88" stroke="#000000" stroke-width="1" width="216" x="1334" y="294"/>
<text font-family="Lucida Grande" font-size="13" x="1400" y="308">
PlayerCamera</text>
<rect fill="#000000" height="1" stroke="#000000" stroke-width="1" width="216" x="1334" y="318"/>
<rect fill="#000000" height="1" stroke="#000000" stroke-width="1" width="216" x="1334" y="339"/>
<text font-family="Lucida Grande" font-size="13" x="1338" y="354">
+directionVector() : Vector3d</text>
<text font-family="Lucida Grande" font-size="13" x="1338" y="371">
+upVector() : Vector3d</text>
<polyline fill="none" points="1390,294 1390,239" stroke="#000000" stroke-width="1"/>
<polygon fill="#ffffff" points="1390,239 1397,251 1383,251" stroke="#ffffff" stroke-width="1"/>
<polygon fill="none" points="1390,239 1397,251 1383,251" stroke="#000000" stroke-width="1"/>
<polyline fill="none" points="1406,382 1406,454" stroke="#000000" stroke-width="1"/>
<line fill="#000000" stroke="#000000" stroke-width="1" x1="1399" x2="1406" y1="442" y2="454"/>
<line fill="#000000" stroke="#000000" stroke-width="1" x1="1413" x2="1406" y1="442" y2="454"/>
<polyline fill="none" points="1078,187 1294,187" stroke="#000000" stroke-width="1"/>
<line fill="#000000" stroke="#000000" stroke-width="1" x1="1282" x2="1294" y1="194" y2="187"/>
<line fill="#000000" stroke="#000000" stroke-width="1" x1="1282" x2="1294" y1="180" y2="187"/>
<rect fill="#ffffff" height="95" stroke="#ffffff" stroke-width="1" width="152" x="806" y="302"/>
<rect fill="none" height="95" stroke="#000000" stroke-width="1" width="152" x="806" y="302"/>
<text font-family="Lucida Grande" font-size="13" x="865" y="336">
Team</text>
<text font-family="Lucida Grande" font-size="13" x="812" y="317">
&lt;&lt;BoundingObject&gt;&gt;</text>
<rect fill="#000000" height="1" stroke="#000000" stroke-width="1" width="152" x="806" y="346"/>
<text font-family="Lucida Grande" font-size="13" x="810" y="361">
-resources : Integer</text>
<rect fill="#000000" height="1" stroke="#000000" stroke-width="1" width="152" x="806" y="371"/>
<text font-family="Lucida Grande" font-size="13" x="810" y="386">
draw()</text>
<polyline fill="none" points="870,229 870,302" stroke="#000000" stroke-width="1"/>
<polygon fill="#000000" points="870,229 875,239 870,249 865,239" stroke="#000000" stroke-width="1"/>
<polygon fill="none" points="870,229 875,239 870,249 865,239" stroke="#000000" stroke-width="1"/>
<polyline fill="none" points="958,350 1014,350 1198,454" stroke="#000000" stroke-width="1"/>
<polygon fill="#000000" points="958,350 968,345 978,350 968,355" stroke="#000000" stroke-width="1"/>
<polygon fill="none" points="958,350 968,345 978,350 968,355" stroke="#000000" stroke-width="1"/>
<polygon fill="#ffffff" points="998,454 1139,454 1149,464 1149,539 998,539 998,454" stroke="#ffffff" stroke-width="1"/>
<polyline fill="none" points="998,454 1139,454 1149,464 1149,539 998,539 998,454" stroke="#000000" stroke-width="1"/>
<polygon fill="#ffffff" points="1139,454 1149,464 1139,464 1139,454" stroke="#ffffff" stroke-width="1"/>
<polyline fill="none" points="1139,454 1149,464 1139,464 1139,454" stroke="#000000" stroke-width="1"/>
<text font-family="Lucida Grande" font-size="13" x="1001" y="470">
Walk() is a method,</text>
<text font-family="Lucida Grande" font-size="13" x="1001" y="486">
which triggers the</text>
<text font-family="Lucida Grande" font-size="13" x="1001" y="502">
player to walk in the</text>
<text font-family="Lucida Grande" font-size="13" x="1001" y="518">
direction specified by</text>
<text font-family="Lucida Grande" font-size="13" x="1001" y="534">
 the angle.</text>
<line fill="#000000" stroke="#000000" stroke-width="1" x1="1150" x2="1155" y1="464" y2="464"/>
<line fill="#000000" stroke="#000000" stroke-width="1" x1="1160" x2="1165" y1="464" y2="464"/>
<line fill="#000000" stroke="#000000" stroke-width="1" x1="1170" x2="1175" y1="464" y2="464"/>
<line fill="#000000" stroke="#000000" stroke-width="1" x1="1180" x2="1185" y1="464" y2="464"/>
<line fill="#000000" stroke="#000000" stroke-width="1" x1="1190" x2="1195" y1="464" y2="464"/>
<polygon fill="#ffffff" points="2966,150 3171,150 3181,160 3181,213 2966,213 2966,150" stroke="#ffffff" stroke-width="1"/>
<polyline fill="none" points="2966,150 3171,150 3181,160 3181,213 2966,213 2966,150" stroke="#000000" stroke-width="1"/>
<polygon fill="#ffffff" points="3171,150 3181,160 3171,160 3171,150" stroke="#ffffff" stroke-width="1"/>
<polyline fill="none" points="3171,150 3181,160 3171,160 3171,150" stroke="#000000" stroke-width="1"/>
<text font-family="Lucida Grande" font-size="13" x="2969" y="166">
Implementing the interface</text>
<text font-family="Lucida Grande" font-size="13" x="2969" y="182">
Drawable is denoted by the </text>
<text font-family="Lucida Grande" font-size="13" x="2969" y="198">
stereotype &lt;&lt;Drawable&gt;&gt;</text>
<rect fill="#ffffff" height="126" stroke="#ffffff" stroke-width="1" width="440" x="310" y="294"/>
<rect fill="none" height="126" stroke="#000000" stroke-width="1" width="440" x="310" y="294"/>
<text font-family="Lucida Grande" font-size="13" x="508" y="328">
Terrain</text>
<text font-family="Lucida Grande" font-size="13" x="489" y="309">
&lt;&lt;Object&gt;&gt;</text>
<rect fill="#000000" height="1" stroke="#000000" stroke-width="1" width="440" x="310" y="338"/>
<rect fill="#000000" height="1" stroke="#000000" stroke-width="1" width="440" x="310" y="368"/>
<text font-family="Lucida Grande" font-size="13" x="314" y="383">
+groundCollision(start : Point3d,direction : Vector3d) : Point2d</text>
<text font-family="Lucida Grande" font-size="13" x="314" y="400">
+getHeight(x : Integer,y : Integer) : Real</text>
<polyline fill="none" points="686,229 686,294" stroke="#000000" stroke-width="1"/>
<polygon fill="#000000" points="686,229 691,239 686,249 681,239" stroke="#000000" stroke-width="1"/>
<polygon fill="none" points="686,229 691,239 686,249 681,239" stroke="#000000" stroke-width="1"/>
<polyline fill="none" points="1198,598 766,598 766,670" stroke="#000000" stroke-width="1"/>
<line fill="#000000" stroke="#000000" stroke-width="1" x1="759" x2="766" y1="658" y2="670"/>
<line fill="#000000" stroke="#000000" stroke-width="1" x1="773" x2="766" y1="658" y2="670"/>
<text font-family="Lucida Grande" font-size="13" x="875" y="593">
ownedBuildings</text>
<rect fill="#ffffff" height="129" stroke="#ffffff" stroke-width="1" width="176" x="230" y="454"/>
<rect fill="none" height="129" stroke="#000000" stroke-width="1" width="176" x="230" y="454"/>
<text font-family="Lucida Grande" font-size="13" x="285" y="488">
Droppable</text>
<text font-family="Lucida Grande" font-size="13" x="248" y="469">
&lt;&lt;BoundingObject&gt;&gt;</text>
<rect fill="#000000" height="1" stroke="#000000" stroke-width="1" width="176" x="230" y="498"/>
<text font-family="Lucida Grande" font-size="13" x="234" y="513">
-worth : Integer</text>
<text font-family="Lucida Grande" font-size="13" x="234" y="530">
-dieTime : Time</text>
<rect fill="#000000" height="1" stroke="#000000" stroke-width="1" width="176" x="230" y="540"/>
<text font-family="Lucida Grande" font-size="13" x="234" y="555">
+onPickup()</text>
<text font-family="Lucida Grande" font-size="13" x="234" y="572">
draw()</text>
<rect fill="#ffffff" height="135" stroke="#ffffff" stroke-width="1" width="240" x="454" y="446"/>
<rect fill="none" height="135" stroke="#000000" stroke-width="1" width="240" x="454" y="446"/>
<text font-family="Lucida Grande" font-size="13" x="545" y="480">
Structure</text>
<text font-family="Lucida Grande" font-size="13" x="504" y="461">
&lt;&lt;BoundingObject&gt;&gt;</text>
<rect fill="#000000" height="1" stroke="#000000" stroke-width="1" width="240" x="454" y="490"/>
<rect fill="#000000" height="1" stroke="#000000" stroke-width="1" width="240" x="454" y="533"/>
<text font-family="Lucida Grande" font-size="13" font-style="italic" x="458" y="548">
draw()</text>
<rect fill="#ffffff" height="152" stroke="#ffffff" stroke-width="1" width="248" x="182" y="678"/>
<rect fill="none" height="152" stroke="#000000" stroke-width="1" width="248" x="182" y="678"/>
<text font-family="Lucida Grande" font-size="13" x="291" y="712">
Mine</text>
<text font-family="Lucida Grande" font-size="13" x="236" y="693">
&lt;&lt;BoundingObject&gt;&gt;</text>
<rect fill="#000000" height="1" stroke="#000000" stroke-width="1" width="248" x="182" y="722"/>
<text font-family="Lucida Grande" font-size="13" x="186" y="737">
-income : Integer</text>
<rect fill="#000000" height="1" stroke="#000000" stroke-width="1" width="248" x="182" y="775"/>
<text font-family="Lucida Grande" font-size="13" x="186" y="790">
draw()</text>
<polyline fill="none" points="702,670 702,638 574,614 574,581" stroke="#000000" stroke-width="1"/>
<polygon fill="#ffffff" points="574,581 581,593 567,593" stroke="#ffffff" stroke-width="1"/>
<polygon fill="none" points="574,581 581,593 567,593" stroke="#000000" stroke-width="1"/>
<polyline fill="none" points="334,678 334,646 574,614 574,581" stroke="#000000" stroke-width="1"/>
<polygon fill="#ffffff" points="574,581 581,593 567,593" stroke="#ffffff" stroke-width="1"/>
<polygon fill="none" points="574,581 581,593 567,593" stroke="#000000" stroke-width="1"/>
<polyline fill="none" points="574,420 574,446" stroke="#000000" stroke-width="1"/>
<polygon fill="#000000" points="574,420 579,430 574,440 569,430" stroke="#000000" stroke-width="1"/>
<polygon fill="none" points="574,420 579,430 574,440 569,430" stroke="#000000" stroke-width="1"/>
<text font-family="Lucida Grande" font-size="13" x="578" y="442">
grid[x][y]</text>
<polyline fill="none" points="742,670 742,470 846,470 846,397" stroke="#000000" stroke-width="1"/>
<line fill="#000000" stroke="#000000" stroke-width="1" x1="853" x2="846" y1="409" y2="397"/>
<line fill="#000000" stroke="#000000" stroke-width="1" x1="839" x2="846" y1="409" y2="397"/>
<text font-family="Lucida Grande" font-size="13" x="744" y="514">
-team</text>
<polyline fill="none" points="1238,454 1238,318 958,318" stroke="#000000" stroke-width="1"/>
<line fill="#000000" stroke="#000000" stroke-width="1" x1="970" x2="958" y1="311" y2="318"/>
<line fill="#000000" stroke="#000000" stroke-width="1" x1="970" x2="958" y1="325" y2="318"/>
<text font-family="Lucida Grande" font-size="13" x="1130" y="309">
-team</text>
<rect fill="#ffffff" height="96" stroke="#ffffff" stroke-width="1" width="376" x="2590" y="358"/>
<rect fill="none" height="96" stroke="#000000" stroke-width="1" width="376" x="2590" y="358"/>
<text font-family="Lucida Grande" font-size="13" x="2728" y="372">
BoundingObject</text>
<rect fill="#000000" height="1" stroke="#000000" stroke-width="1" width="376" x="2590" y="382"/>
<text font-family="Lucida Grande" font-size="13" x="2594" y="397">
-bBox : BoundingBox</text>
<rect fill="#000000" height="1" stroke="#000000" stroke-width="1" width="376" x="2590" y="409"/>
<text font-family="Lucida Grande" font-size="13" x="2594" y="424">
+checkCollision(origin : Point3d,direction : Vector3d)</text>
<text font-family="Lucida Grande" font-size="13" font-style="italic" x="2594" y="441">
draw()</text>
<polyline fill="none" points="2623,358 2623,290" stroke="#000000" stroke-width="1"/>
<polygon fill="#ffffff" points="2623,290 2630,302 2616,302" stroke="#ffffff" stroke-width="1"/>
<polygon fill="none" points="2623,290 2630,302 2616,302" stroke="#000000" stroke-width="1"/>
<polyline fill="none" points="322,420 322,454" stroke="#000000" stroke-width="1"/>
<polygon fill="#000000" points="322,420 327,430 322,440 317,430" stroke="#000000" stroke-width="1"/>
<polygon fill="none" points="322,420 327,430 322,440 317,430" stroke="#000000" stroke-width="1"/>
</svg>
