<?xml version="1.0" encoding="UTF-8" standalone="no"?>
<!-- Created with Inkscape (http://www.inkscape.org/) -->

<svg
   xmlns:dc="http://purl.org/dc/elements/1.1/"
   xmlns:cc="http://creativecommons.org/ns#"
   xmlns:rdf="http://www.w3.org/1999/02/22-rdf-syntax-ns#"
   xmlns:svg="http://www.w3.org/2000/svg"
   xmlns="http://www.w3.org/2000/svg"
   xmlns:sodipodi="http://sodipodi.sourceforge.net/DTD/sodipodi-0.dtd"
   xmlns:inkscape="http://www.inkscape.org/namespaces/inkscape"
   width="3149.5713"
   height="1558.1428"
   id="svg2"
   version="1.1"
   inkscape:version="0.48.2 r9819"
   sodipodi:docname="New document 1">
  <defs
     id="defs4" />
  <sodipodi:namedview
     id="base"
     pagecolor="#ffffff"
     bordercolor="#666666"
     borderopacity="1.0"
     inkscape:pageopacity="0.0"
     inkscape:pageshadow="2"
     inkscape:zoom="0.35"
     inkscape:cx="1902.8571"
     inkscape:cy="634.19318"
     inkscape:document-units="px"
     inkscape:current-layer="layer1"
     showgrid="false"
     fit-margin-top="0"
     fit-margin-left="0"
     fit-margin-right="0"
     fit-margin-bottom="0"
     inkscape:window-width="1600"
     inkscape:window-height="878"
     inkscape:window-x="-8"
     inkscape:window-y="-8"
     inkscape:window-maximized="1" />
  <metadata
     id="metadata7">
    <rdf:RDF>
      <cc:Work
         rdf:about="">
        <dc:format>image/svg+xml</dc:format>
        <dc:type
           rdf:resource="http://purl.org/dc/dcmitype/StillImage" />
        <dc:title></dc:title>
      </cc:Work>
    </rdf:RDF>
  </metadata>
  <g
     inkscape:label="Layer 1"
     inkscape:groupmode="layer"
     id="layer1"
     transform="translate(1626.2142,436.70926)">
    <rect
       style="fill:#e6e6e6;stroke:#000000"
       id="rect2985"
       width="3145.7144"
       height="1557.1428"
       x="-1622.8572"
       y="-436.20926"
       ry="25.714285" />
    <rect
       style="fill:#f9f9f9;stroke:#000000"
       id="rect3755"
       width="611.42859"
       height="462.85715"
       x="877.14288"
       y="-401.92352"
       ry="17.142859" />
    <rect
       style="fill:#ff0000;stroke:#000000"
       id="rect3757"
       width="54.285713"
       height="57.142857"
       x="908.57141"
       y="-19.066389"
       ry="0" />
    <rect
       style="fill:#0000ff;stroke:#000000"
       id="rect3761"
       width="51.42857"
       height="54.285713"
       x="1405.7142"
       y="-367.63782" />
    <rect
       style="fill:#0000ff;stroke:#000000"
       id="rect3763"
       width="40"
       height="40"
       x="1200"
       y="-336.20926"
       ry="20" />
    <rect
       style="fill:#0000ff;stroke:#000000"
       id="rect3763-4"
       width="40"
       height="40"
       x="1345.7142"
       y="-101.92353"
       ry="20" />
    <rect
       style="fill:#0000ff;stroke:#000000"
       id="rect3763-0"
       width="40"
       height="40"
       x="951.42859"
       y="-279.06638"
       ry="20" />
    <rect
       style="fill:#ff0000;stroke:#000000"
       id="rect3763-9"
       width="40"
       height="40"
       x="1068.5714"
       y="-99.066391"
       ry="20" />
    <rect
       style="fill:#ff0000;stroke:#000000"
       id="rect3763-9-4"
       width="40"
       height="40"
       x="1231.4286"
       y="-53.352104"
       ry="20" />
    <rect
       style="fill:#ff0000;stroke:#000000"
       id="rect3763-9-8"
       width="40"
       height="40"
       x="925.71429"
       y="-133.3521"
       ry="20" />
    <rect
       style="fill:#ff0000;stroke:#000000"
       id="rect3763-9-82"
       width="40"
       height="40"
       x="1045.7142"
       y="-7.6378174"
       ry="20" />
    <path
       style="fill:none;stroke:#000000;stroke-width:1px;stroke-linecap:butt;stroke-linejoin:miter;stroke-opacity:1"
       d="m -1622.8571,220.93361 c 3.8095,-0.95238 7.619,-1.90476 11.4285,-2.85714 2.8572,0 5.7532,0.46971 8.5715,0 2.9707,-0.49512 5.6182,-2.2665 8.5714,-2.85714 1.8678,-0.37356 3.8095,0 5.7143,0 3.8095,0 7.619,0 11.4285,0 14.2858,0 28.5715,0 42.8572,0 5.7143,0 11.452,0.51734 17.1428,0 4.8363,-0.43967 9.4536,-2.37394 14.2858,-2.85715 32.8085,0 -2.3703,1.15493 25.7142,-2.85714 2.8285,-0.40406 5.7143,0 8.5715,0 4.7619,0 9.5238,0 14.2857,0 2.8571,0 5.7996,0.69296 8.5714,0 1.3067,-0.32666 1.5794,-2.43123 2.8572,-2.85714 1.536,-0.51201 9.0095,0 11.4285,0 9.5238,0 19.0476,0 28.5715,0 13.3333,0 26.6666,0 40,0 4.3333,0 19.021,0.63934 22.8571,0 2.9707,-0.49512 5.6182,-2.2665 8.5714,-2.85715 1.8678,-0.37355 3.9073,0.60234 5.7143,0 1.2778,-0.42591 1.5794,-2.43122 2.8572,-2.85714 3.5484,-1.18281 10.5291,0.93915 14.2857,0 19.2449,-4.81124 0.044,-0.0441 5.7143,-5.71428 0.7667,-0.76676 9.4163,0.67074 11.4285,0 11.4286,-3.80953 -0.5777,-2.7416 14.2857,-5.71429 1.8678,-0.37355 3.8664,0.46197 5.7143,0 2.066,-0.5165 3.6483,-2.34064 5.7143,-2.85714 1.8479,-0.46198 3.8355,0.31314 5.7143,0 3.8733,-0.64556 7.619,-1.90477 11.4286,-2.85715 3.8095,-0.95238 7.7033,-1.61539 11.4285,-2.85714 4.0407,-1.34687 7.2966,-4.68128 11.4286,-5.71428 1.8479,-0.46198 3.8465,0.37355 5.7143,0 2.9532,-0.59065 5.6007,-2.36203 8.5714,-2.85715 2.8183,-0.46971 5.7698,0.56033 8.5715,0 2.0882,-0.41764 3.6939,-2.18371 5.7142,-2.85714 0.9036,-0.30117 1.9048,0 2.8572,0 1.9047,0 3.8095,0 5.7143,0 2.8571,0 5.7996,0.69296 8.5714,0 1.3067,-0.32666 1.5794,-2.43123 2.8571,-2.85714 3.4566,-1.15218 13.2511,0.97295 17.1429,0 2.066,-0.5165 3.694,-2.18371 5.7143,-2.85715 2.0116,-0.67053 17.2411,0 20,0 15.2381,0 30.4762,0 45.7143,0 16.1904,0 32.3809,0 48.5714,0 3.587,0 21.2706,-0.52884 22.8571,0 3.2577,1.08589 5.5001,4.17862 8.5715,5.71429 2.6937,1.34687 5.8777,1.51027 8.5714,2.85714 3.07134,1.53567 5.26969,4.77093 8.57143,5.71429 3.66295,1.04656 7.65733,-0.53875 11.42857,0 13.14207,1.87744 4.5685,3.54168 17.14286,8.57143 19.71919,7.88767 16.66832,3.76668 34.28571,8.57143 5.81115,1.58485 11.55029,3.47725 17.14286,5.71428 3.95455,1.58182 7.2521,4.87899 11.42857,5.71429 5.60332,1.12066 11.45693,-0.5686 17.14286,0 3.90728,0.39072 7.61904,1.90476 11.42857,2.85714 14.35034,3.58759 7.70331,1.61539 20,5.71429 2.85714,0.95238 5.87769,1.51027 8.57143,2.85714 1.20467,0.60234 1.55048,2.53048 2.85714,2.85714 2.77184,0.69296 5.76977,-0.56033 8.57143,0 11.49749,2.2995 1.31273,2.08494 8.57143,5.71429 0.85183,0.42591 1.93319,-0.23099 2.85714,0 2.92177,0.73044 5.61822,2.2665 8.57143,2.85714 1.86777,0.37355 3.86639,-0.46197 5.71428,0 2.06601,0.5165 3.62606,2.4395 5.71429,2.85714 5.60332,1.12067 11.50632,-0.93942 17.14286,0 25.0805,4.18009 -4.36742,1.05101 14.28571,5.71429 1.84789,0.46197 3.80953,0 5.71429,0 1.90476,0 3.80952,0 5.71428,0 7.61905,0 15.2381,0 22.85715,0 2.85714,0 5.71428,0 8.57142,0 2.85715,0 5.75316,-0.46971 8.57143,0 2.97072,0.49512 5.59001,2.43122 8.57143,2.85714 3.77124,0.53875 7.61905,0 11.42857,0 9.52381,0 19.04762,0 28.57143,0 3.80953,0 7.63469,-0.3449 11.42857,0 6.7067,0.6097 13.28549,2.34064 20,2.85714 10.44534,0.80349 20.95238,0 31.42857,0 27.61905,0 55.2381,0 82.85715,0 38.09524,0 76.19047,0 114.28571,0 11.42857,0 22.85714,0 34.28572,0 3.80952,0 7.64846,0.47252 11.42857,0 33.94448,-4.24306 -17.19644,-2.85714 28.57143,-2.85714 30.47619,0 60.95238,0 91.42857,0 10.47619,0 20.95238,0 31.42857,0 3.80952,0 7.65733,0.53875 11.42857,0 2.98142,-0.42592 5.59,-2.43122 8.57143,-2.85714 3.77123,-0.53875 7.61905,0 11.42857,0 5.71429,0 11.42857,0 17.14286,0 18.09524,0 36.19047,0 54.28571,0 6.66667,0 13.346318,0.41585 20.000001,0 37.004539,-2.31279 15.830579,-2.27259 54.285715,-11.42857 10.358385,-2.46629 21.023653,-3.45235 31.4285711,-5.71429 11.5114325,-2.50248 22.7530299,-6.16878 34.2857139,-8.57143 11.342677,-2.36306 22.96394,-3.25303 34.285715,-5.71428 10.610976,-2.30674 20.952381,-5.71429 31.428571,-8.57143 11.428573,-1.90476 22.904133,-3.54637 34.285713,-5.71429 8.62544,-1.64294 17.23024,-3.45187 25.71429,-5.71428 21.86557,-5.83082 10.64905,-4.98696 28.57143,-8.57143 5.6806,-1.13612 11.42857,-1.90476 17.14285,-2.85714 5.71429,-0.95239 11.36682,-2.41284 17.14286,-2.85715 17.9888,-1.38375 36.29692,1.38376 54.28571,0 5.77605,-0.44431 11.42858,-1.90476 17.14286,-2.85714 5.71429,-0.95238 11.46225,-1.72102 17.14286,-2.85714 3.85051,-0.77011 7.52582,-2.42351 11.42857,-2.85715 4.73278,-0.52586 9.6372,1.03301 14.28571,0 4.15776,-0.92394 7.34902,-4.49042 11.42858,-5.71428 5.54879,-1.66464 11.52271,-1.45211 17.14285,-2.85714 2.06601,-0.51651 3.80953,-1.90477 5.71429,-2.85715 3.80952,-1.90476 7.38796,-4.36741 11.42857,-5.71428 1.80702,-0.60234 3.80952,0 5.71429,0 2.85714,0 5.76977,0.56033 8.57142,0 2.08824,-0.41765 3.62606,-2.4395 5.71429,-2.85715 4.6232,-1.40083 9.61628,0.93389 14.28571,0 2.95321,-0.59064 5.64966,-2.1267 8.57143,-2.85714 0.92395,-0.23099 2.00531,0.42592 2.85715,0 1.20467,-0.60234 1.57939,-2.43122 2.85714,-2.85714 1.80701,-0.60234 3.80952,0 5.71428,0 4.76191,0 9.52381,0 14.28572,0 0.95238,0 1.95363,0.30117 2.85714,0 2.02031,-0.67344 3.69398,-2.18371 5.71429,-2.85714 0.90351,-0.30117 1.90476,0 2.85714,0 2.85714,0 5.71429,0 8.57143,0 3.04885,0 10.66711,0 14.28571,0 4.33331,0 19.02107,-0.63935 22.85715,0 2.97071,0.49511 5.59,2.43122 8.57142,2.85714 3.77124,0.53875 7.76563,-1.04656 11.42858,0 23.49694,6.71341 -3.80698,3.67456 14.28571,11.42857 7.16924,3.07253 15.92366,1.5542 22.85714,5.71429 2.30987,1.38591 3.21321,4.71385 5.71429,5.71428 2.65279,1.06112 5.79959,-0.69296 8.57143,0 10.44193,-1.99932 14.72654,8.88776 22.85714,11.42857 13.6173,4.25541 39.02298,7.24138 54.28571,14.28572 6.97163,3.21767 12.87084,8.5769 20,11.42857 4.69356,1.87742 45.02195,10.68131 48.57143,11.42857 24.70798,5.20168 34.69815,6.82823 60,11.42857 10.47619,1.90476 21.00903,3.5207 31.42857,5.71429 17.31068,3.64435 31.87158,8.13313 48.57143,14.28571 9.62502,3.54606 18.74657,8.48111 28.57143,11.42857 21.86977,6.56093 30.18452,5.03076 51.42857,8.57143 21.36441,3.56074 28.53255,6.74971 48.57143,8.57143 10.43313,0.94847 20.98323,-0.80349 31.42853,0 5.7761,0.44431 11.3785,2.28071 17.1429,2.85714 6.6336,0.66336 13.4003,-0.94281 20,0 3.8873,0.55533 7.5413,2.30182 11.4286,2.85715 2.8284,0.40406 5.7143,0 8.5714,0 2.4706,0 11.0445,0 14.2857,0 2.8572,0 5.7143,0 8.5714,0 1.9048,0 3.8664,0.46197 5.7143,0 4.132,-1.03301 7.2521,-4.879 11.4286,-5.71429 2.8017,-0.56033 5.7698,0.56033 8.5714,0 0.1348,-0.0269 11.0336,-5.5563 11.4286,-5.71429 4.8526,-1.94102 15.3556,-4.94022 20,-5.71428 1.8788,-0.31314 3.8465,0.37355 5.7143,0 2.9532,-0.59064 5.6182,-2.2665 8.5714,-2.85714 1.8678,-0.37356 3.8095,0 5.7143,0 2.8571,-0.95239 5.6497,-2.1267 8.5714,-2.85715 0.924,-0.23098 1.9048,0 2.8572,0 2.8571,0 5.7143,0 8.5714,0 1.9048,0 3.8465,0.37356 5.7143,0 2.9532,-0.59064 5.6182,-2.2665 8.5714,-2.85714 3.7356,-0.74711 7.7328,0.92394 11.4286,0 2.066,-0.5165 3.6483,-2.34064 5.7143,-2.85714 1.8479,-0.46198 3.9457,0.70741 5.7143,0 3.1882,-1.27531 5.3831,-4.43899 8.5714,-5.71429 3.537,-1.41482 7.8915,1.41482 11.4286,0 14.1033,-5.64134 2.6597,-6.15758 17.1428,-8.57143 2.8183,-0.46971 5.7143,0 8.5714,0 2.8572,-0.95238 5.6183,-2.2665 8.5715,-2.85714 1.8677,-0.37355 3.8664,0.46197 5.7143,0 2.066,-0.5165 3.6939,-2.18371 5.7142,-2.85714 3.7253,-1.24176 7.6529,-1.77838 11.4286,-2.85715 5.7916,-1.65475 11.2993,-4.2534 17.1429,-5.71428 4.7112,-1.17781 9.5451,-1.80368 14.2857,-2.85714 3.8332,-0.85184 7.5213,-2.46642 11.4286,-2.85715 5.6859,-0.56859 11.4569,0.5686 17.1428,0 3.9073,-0.39073 7.5213,-2.46641 11.4286,-2.85714 9.4765,-0.94765 19.0476,0 28.5714,0 13.3333,0 26.6667,0 40,0 8.5714,0 17.1429,0 25.7143,0 2.3001,0 9.6353,-0.59777 11.4286,0 2.0203,0.67343 3.694,2.18371 5.7143,2.85714 8.5052,2.83508 -5.8623,-6.76534 8.5714,2.85715 1.1206,0.7471 1.6525,2.2548 2.8571,2.85714 1.0333,0.51662 12.2985,0 14.2857,0"
       id="path3871"
       inkscape:connector-curvature="0" />
    <rect
       style="fill:#4d4d4d;stroke:#4d4d4d"
       id="rect3873"
       width="300"
       height="160"
       x="-1388.5714"
       y="166.6479"
       ry="0" />
    <path
       sodipodi:type="arc"
       style="fill:#4d4d4d;stroke:#4d4d4d"
       id="path3901"
       sodipodi:cx="-1245.7142"
       sodipodi:cy="106.6479"
       sodipodi:rx="251.42857"
       sodipodi:ry="82.85714"
       d="m -994.28566,106.6479 c 0,45.76074 -112.56844,82.85714 -251.42854,82.85714 -138.8602,0 -251.4286,-37.0964 -251.4286,-82.85714 0,-45.760731 112.5684,-82.857136 251.4286,-82.857136 138.8601,0 251.42854,37.096405 251.42854,82.857136 z" />
    <rect
       style="fill:#4d4d4d;stroke:#4d4d4d"
       id="rect3903"
       width="228.57143"
       height="51.42857"
       x="-1020"
       y="80.933609"
       ry="0" />
    <path
       sodipodi:type="arc"
       style="fill:#ff0000;stroke:#4d4d4d"
       id="path3905"
       sodipodi:cx="-1232.8572"
       sodipodi:cy="109.50504"
       sodipodi:rx="35.714283"
       sodipodi:ry="31.428572"
       d="m -1197.1429,109.50504 c 0,17.35752 -15.9898,31.42857 -35.7143,31.42857 -19.7244,0 -35.7143,-14.07105 -35.7143,-31.42857 0,-17.357518 15.9899,-31.428569 35.7143,-31.428569 19.7245,0 35.7143,14.071051 35.7143,31.428569 z" />
    <path
       style="fill:none;stroke:#ff0000;stroke-width:1px;stroke-linecap:butt;stroke-linejoin:miter;stroke-opacity:1"
       d="M -788.57143,103.79075 C 1517.1429,106.6479 1517.1429,106.6479 1517.1429,106.6479"
       id="path3915"
       inkscape:connector-curvature="0" />
    <path
       sodipodi:type="arc"
       style="fill:#ff0000;stroke:#000000"
       id="path3917"
       sodipodi:cx="1305.7142"
       sodipodi:cy="960.93359"
       sodipodi:rx="137.14285"
       sodipodi:ry="120"
       d="m 1310.5113,1080.8602 c -75.6956,2.3181 -139.2067,-49.4956 -141.856,-115.72918 -2.6493,-66.23361 56.5663,-121.80582 132.2619,-124.12399 75.6955,-2.31818 139.2066,49.49552 141.856,115.72913 0.8543,21.35954 -4.8263,42.53118 -16.4549,61.32634 l -120.6041,-57.12891 z"
       sodipodi:start="1.5358106"
       sodipodi:end="6.7793707" />
    <rect
       style="fill:#b3b3b3;stroke:#000000"
       id="rect3921"
       width="385.71429"
       height="91.428574"
       x="-1625.7142"
       y="1029.505"
       ry="25.714285" />
    <flowRoot
       xml:space="preserve"
       id="flowRoot3923"
       style="font-size:40px;font-style:normal;font-weight:normal;line-height:125%;letter-spacing:0px;word-spacing:0px;fill:#000000;fill-opacity:1;stroke:none;font-family:Sans"><flowRegion
         id="flowRegion3925"><rect
           id="rect3927"
           width="157.14313"
           height="51.428757"
           x="-1525.7144"
           y="1049.5051"
           ry="25.714378"
           rx="40" /></flowRegion><flowPara
         id="flowPara3929">MENU</flowPara></flowRoot>    <path
       style="fill:#999999;stroke:#999999;stroke-width:1px;stroke-linecap:butt;stroke-linejoin:miter;stroke-opacity:1"
       d="m -811.42857,432.36218 471.42857,0 -60,108.57143 -62.85714,262.85714 -222.85715,5.71429 L -740,555.21933 z"
       id="path4036"
       inkscape:connector-curvature="0" />
    <path
       style="fill:#999999;stroke:#999999;stroke-width:1.09257293px;stroke-linecap:butt;stroke-linejoin:miter;stroke-opacity:1"
       d="m -615.668,434.84235 0,-51.00532 64.19315,0 -3.05682,54.19315 z"
       id="path4038"
       inkscape:connector-curvature="0" />
    <path
       sodipodi:type="arc"
       style="fill:#999999;stroke:#999999"
       id="path4040"
       sodipodi:cx="-585.71429"
       sodipodi:cy="342.36218"
       sodipodi:rx="102.85715"
       sodipodi:ry="70"
       d="m -582.1165,412.31935 c -56.77167,1.35227 -104.40499,-28.87239 -106.392,-67.50867 -1.98701,-38.63627 42.42474,-71.05339 99.19641,-72.40566 56.77167,-1.35227 104.40499,28.87239 106.392,67.50866 1.63002,31.69484 -28.25443,60.1756 -72.8343,69.41322"
       sodipodi:start="1.5358106"
       sodipodi:end="7.5584204"
       sodipodi:open="true" />
    <path
       style="fill:#999999;stroke:#999999;stroke-width:1px;stroke-linecap:butt;stroke-linejoin:miter;stroke-opacity:1"
       d="m -622.85714,806.6479 0,31.42857 82.85714,-2.85714 0,-28.57143 z"
       id="path4045"
       inkscape:connector-curvature="0" />
    <path
       style="fill:#999999;stroke:#999999;stroke-width:1px;stroke-linecap:butt;stroke-linejoin:miter;stroke-opacity:1"
       d="m -622.85714,835.21933 -48.57143,0 0,117.14285 37.14286,0 0,-77.14285 117.14285,0 0,80 31.42857,0 0,-2.85715 11.42858,0 0,-120 -60,0 0,2.85715 z"
       id="path4061"
       inkscape:connector-curvature="0" />
    <rect
       style="fill:#999999;stroke:#999999"
       id="rect4063"
       width="82.857155"
       height="177.14285"
       x="-614.28571"
       y="883.79077"
       ry="47.142857" />
    <path
       inkscape:connector-curvature="0"
       id="path4073"
       d="m -340,432.36218 -471.42857,0 60,108.57143 62.85714,262.85714 222.85715,5.71429 54.28571,-254.28571 z"
       style="fill:#999999;stroke:#999999;stroke-width:1px;stroke-linecap:butt;stroke-linejoin:miter;stroke-opacity:1" />
    <path
       inkscape:connector-curvature="0"
       id="path4075"
       d="m -522.85714,835.21933 48.57143,0 0,117.14285 -37.14286,0 0,-77.14285 -117.14285,0 0,80 -31.42857,0 0,-2.85715 -11.42858,0 0,-120 60,0 0,2.85715 z"
       style="fill:#999999;stroke:#999999;stroke-width:1px;stroke-linecap:butt;stroke-linejoin:miter;stroke-opacity:1" />
    <rect
       style="fill:#999999;stroke:#999999"
       id="rect4079"
       width="77.14286"
       height="82.85714"
       x="-414.28571"
       y="520.93359"
       ry="25.714285" />
    <rect
       style="fill:#999999;stroke:#999999"
       id="rect4081"
       width="71.428574"
       height="85.714287"
       x="-800"
       y="526.64789"
       ry="25.714285" />
    <path
       sodipodi:type="arc"
       style="fill:#ff0000;stroke:#999999"
       id="path4089"
       sodipodi:cx="-584.28571"
       sodipodi:cy="350.93362"
       sodipodi:rx="30"
       sodipodi:ry="32.857143"
       d="m -583.23635,383.77066 c -16.5584,0.63474 -30.45145,-13.55234 -31.031,-31.68774 -0.57954,-18.13539 12.37388,-33.35159 28.93229,-33.98633 16.5584,-0.63474 30.45145,13.55234 31.031,31.68774 0.47542,14.87717 -8.24088,28.24569 -21.24334,32.58171"
       sodipodi:start="1.5358106"
       sodipodi:end="7.5584204"
       sodipodi:open="true" />
    <path
       sodipodi:type="arc"
       style="fill:#e6e6e6;stroke:#ff0000"
       id="path4091"
       sodipodi:cx="-75.714287"
       sodipodi:cy="406.64789"
       sodipodi:rx="107.14286"
       sodipodi:ry="102.85714"
       d="m 31.428574,406.64789 c 0,56.80643 -47.969493,102.85714 -107.142861,102.85714 -59.173363,0 -107.142863,-46.05071 -107.142863,-102.85714 0,-56.80643 47.9695,-102.85714 107.142863,-102.85714 59.173368,0 107.142861,46.05071 107.142861,102.85714 z" />
    <path
       style="fill:#e6e6e6;stroke:#ff0000;stroke-width:1px;stroke-linecap:butt;stroke-linejoin:miter;stroke-opacity:1"
       d="m -74.285714,272.36218 0,280"
       id="path4093"
       inkscape:connector-curvature="0" />
    <path
       style="fill:none;stroke:#ff0000;stroke-width:1px;stroke-linecap:butt;stroke-linejoin:miter;stroke-opacity:1"
       d="m -214.28571,403.79075 282.857139,0"
       id="path4097"
       inkscape:connector-curvature="0" />
    <rect
       style="opacity:0.6;fill:#ff0000;stroke:#000000"
       id="rect4099"
       width="1654.2858"
       height="102.85714"
       x="-888.57141"
       y="929.50507"
       ry="25.714285" />
  </g>
</svg>
